<?xml version="1.0" encoding="UTF-8"?><svg xmlns="http://www.w3.org/2000/svg" xmlns:xlink="http://www.w3.org/1999/xlink" fill-opacity="1" color-rendering="auto" color-interpolation="auto" text-rendering="auto" stroke="black" stroke-linecap="square" width="867" stroke-miterlimit="10" shape-rendering="auto" stroke-opacity="1" fill="black" stroke-dasharray="none" font-weight="normal" stroke-width="1" height="409" font-family="'Dialog'" font-style="normal" stroke-linejoin="miter" font-size="12px" stroke-dashoffset="0" image-rendering="auto">
  <!--Generated by ySVG 2.5-->
  <defs id="genericDefs"/>
  <g>
    <defs id="defs1">
      <clipPath clipPathUnits="userSpaceOnUse" id="clipPath1">
        <path d="M0 0 L867 0 L867 409 L0 409 L0 0 Z"/>
      </clipPath>
      <clipPath clipPathUnits="userSpaceOnUse" id="clipPath2">
        <path d="M46 25 L913 25 L913 434 L46 434 L46 25 Z"/>
      </clipPath>
    </defs>
    <g fill="white" text-rendering="geometricPrecision" shape-rendering="geometricPrecision" transform="translate(-46,-25)" stroke="white">
      <rect x="46" width="867" height="409" y="25" clip-path="url(#clipPath2)" stroke="none"/>
    </g>
    <g fill="rgb(204,255,255)" text-rendering="geometricPrecision" shape-rendering="geometricPrecision" transform="matrix(1,0,0,1,-46,-25)" stroke="rgb(204,255,255)">
      <rect x="215" width="91" height="53" y="250" clip-path="url(#clipPath2)" stroke="none"/>
    </g>
    <g text-rendering="geometricPrecision" stroke-miterlimit="1.45" shape-rendering="geometricPrecision" transform="matrix(1,0,0,1,-46,-25)" stroke-linecap="butt">
      <rect fill="none" x="215" width="91" height="53" y="250" clip-path="url(#clipPath2)"/>
      <text x="221" y="267.1387" clip-path="url(#clipPath2)" font-family="sans-serif" stroke="none" font-weight="bold" xml:space="preserve">MulleUIOS</text>
    </g>
    <g fill="rgb(204,255,204)" text-rendering="geometricPrecision" shape-rendering="geometricPrecision" transform="matrix(1,0,0,1,-46,-25)" stroke="rgb(204,255,204)">
      <rect x="128" width="91" height="53" y="366" clip-path="url(#clipPath2)" stroke="none"/>
    </g>
    <g text-rendering="geometricPrecision" stroke-miterlimit="1.45" shape-rendering="geometricPrecision" transform="matrix(1,0,0,1,-46,-25)" stroke-linecap="butt">
      <rect fill="none" x="128" width="91" height="53" y="366" clip-path="url(#clipPath2)"/>
      <text x="134" y="383.1387" clip-path="url(#clipPath2)" font-family="sans-serif" stroke="none" font-weight="bold" xml:space="preserve">MulleGLFW</text>
    </g>
    <g fill="rgb(204,255,204)" text-rendering="geometricPrecision" shape-rendering="geometricPrecision" transform="matrix(1,0,0,1,-46,-25)" stroke="rgb(204,255,204)">
      <rect x="299.5" width="91" height="53" y="366" clip-path="url(#clipPath2)" stroke="none"/>
    </g>
    <g text-rendering="geometricPrecision" stroke-miterlimit="1.45" shape-rendering="geometricPrecision" transform="matrix(1,0,0,1,-46,-25)" stroke-linecap="butt">
      <rect fill="none" x="299.5" width="91" height="53" y="366" clip-path="url(#clipPath2)"/>
      <text x="305.5" y="383.1387" clip-path="url(#clipPath2)" font-family="sans-serif" stroke="none" font-weight="bold" xml:space="preserve">MulleSDL</text>
    </g>
    <g fill="rgb(204,255,204)" text-rendering="geometricPrecision" shape-rendering="geometricPrecision" transform="matrix(1,0,0,1,-46,-25)" stroke="rgb(204,255,204)">
      <rect x="165.5" width="190" height="53" y="134" clip-path="url(#clipPath2)" stroke="none"/>
    </g>
    <g text-rendering="geometricPrecision" stroke-miterlimit="1.45" shape-rendering="geometricPrecision" transform="matrix(1,0,0,1,-46,-25)" stroke-linecap="butt">
      <rect fill="none" x="165.5" width="190" height="53" y="134" clip-path="url(#clipPath2)"/>
      <text x="171.5" y="151.1387" clip-path="url(#clipPath2)" font-family="sans-serif" stroke="none" font-weight="bold" xml:space="preserve">MulleUI</text>
      <path fill="none" d="M240.625 303 L198.175 359.6" clip-path="url(#clipPath2)"/>
      <path d="M193.375 366 L204.575 359.4 L198.775 358.8 L196.575 353.4 Z" clip-path="url(#clipPath2)" stroke="none"/>
      <rect x="196.6396" y="325.5156" clip-path="url(#clipPath2)" fill="white" width="40.7207" height="17.9688" stroke="none"/>
      <text x="198.6396" xml:space="preserve" y="338.6543" clip-path="url(#clipPath2)" font-family="sans-serif" stroke="none">config</text>
      <path fill="none" d="M279.8039 303 L320.9858 359.5337" clip-path="url(#clipPath2)"/>
      <path d="M325.6961 366 L322.672 353.3566 L320.397 358.7254 L314.5892 359.2445 Z" clip-path="url(#clipPath2)" stroke="none"/>
      <rect x="292.1484" y="325.5156" clip-path="url(#clipPath2)" fill="white" width="21.2031" height="17.9688" stroke="none"/>
      <text x="294.1484" y="338.6543" clip-path="url(#clipPath2)" fill="red" font-family="sans-serif" stroke="none" xml:space="preserve">sdl</text>
      <path fill="none" d="M260.5 187 L260.5 242" clip-path="url(#clipPath2)"/>
      <path d="M260.5 250 L265.5 238 L260.5 241 L255.5 238 Z" clip-path="url(#clipPath2)" stroke="none"/>
      <rect x="240.1396" y="209.5156" clip-path="url(#clipPath2)" fill="white" width="40.7207" height="17.9688" stroke="none"/>
      <text x="242.1396" xml:space="preserve" y="222.6543" clip-path="url(#clipPath2)" font-family="sans-serif" stroke="none">config</text>
    </g>
    <g fill="rgb(245,245,245)" text-rendering="geometricPrecision" shape-rendering="geometricPrecision" transform="matrix(1,0,0,1,-46,-25)" stroke="rgb(245,245,245)">
      <rect x="472" y="119.7695" clip-path="url(#clipPath2)" width="426" rx="4" ry="4" height="81.4609" stroke="none"/>
      <rect x="472" y="119.7695" clip-path="url(#clipPath2)" fill="rgb(235,235,235)" width="426" height="21.4609" stroke="none"/>
    </g>
    <g font-size="15px" stroke-linecap="butt" transform="matrix(1,0,0,1,-46,-25)" text-rendering="geometricPrecision" font-family="sans-serif" shape-rendering="geometricPrecision" stroke-miterlimit="1.45">
      <text x="636.9458" xml:space="preserve" y="135.6929" clip-path="url(#clipPath2)" stroke="none">Environment</text>
      <rect x="472" y="119.7695" clip-path="url(#clipPath2)" fill="none" width="426" stroke-dasharray="6,2" rx="4" ry="4" height="81.4609"/>
    </g>
    <g fill="white" text-rendering="geometricPrecision" shape-rendering="geometricPrecision" transform="matrix(1,0,0,1,-46,-25)" stroke="white">
      <rect x="487" width="330" height="30" y="156.2305" clip-path="url(#clipPath2)" stroke="none"/>
    </g>
    <g text-rendering="geometricPrecision" stroke-miterlimit="1.45" shape-rendering="geometricPrecision" transform="matrix(1,0,0,1,-46,-25)" stroke-linecap="butt">
      <rect fill="none" x="487" width="330" height="30" y="156.2305" clip-path="url(#clipPath2)"/>
      <text x="497.0898" xml:space="preserve" y="175.3848" clip-path="url(#clipPath2)" font-family="sans-serif" stroke="none">MULLE_SOURCETREE_CONFIG_NAMES_MULLE_UIOS</text>
    </g>
    <g fill="white" text-rendering="geometricPrecision" shape-rendering="geometricPrecision" transform="matrix(1,0,0,1,-46,-25)" stroke="white">
      <rect x="817" width="66" height="30" y="156.2305" clip-path="url(#clipPath2)" stroke="none"/>
    </g>
    <g text-rendering="geometricPrecision" stroke-miterlimit="1.45" shape-rendering="geometricPrecision" transform="matrix(1,0,0,1,-46,-25)" stroke-linecap="butt">
      <rect fill="none" x="817" width="66" height="30" y="156.2305" clip-path="url(#clipPath2)"/>
      <text x="841.3984" y="175.3848" clip-path="url(#clipPath2)" fill="red" font-family="sans-serif" stroke="none" xml:space="preserve">sdl</text>
      <text x="63.6655" y="52.6" clip-path="url(#clipPath2)" font-family="'FreeMono'" stroke="none" font-weight="bold" xml:space="preserve">mulle-sde config switch -d MulleUIOS sdl</text>
      <path fill="none" d="M355.5 160.5 L464.0236 160.5" clip-path="url(#clipPath2)"/>
      <path d="M472.0236 160.5 L460.0236 155.5 L463.0236 160.5 L460.0236 165.5 Z" clip-path="url(#clipPath2)" stroke="none"/>
    </g>
    <g text-rendering="geometricPrecision" stroke-miterlimit="1.45" shape-rendering="geometricPrecision" transform="matrix(1,0,0,1,-46,-25)" stroke-linecap="butt">
      <path fill="none" d="M311.7053 65.0281 L311.6901 68.0281 L600.1667 69.4924 L600.1667 69.4924 L600.1667 107.5943 L595.4167 104.7443 L601.6667 119.7443 L607.9167 104.7443 L603.1667 107.5943 L603.1667 68 L603.1667 66.5076 L601.6743 66.5 L311.7053 65.0281 Z" clip-path="url(#clipPath2)"/>
      <rect x="453.5817" y="58.3206" clip-path="url(#clipPath2)" fill="white" width="22.3398" height="17.9688" stroke="none" stroke-width="3"/>
      <rect stroke-linecap="square" x="453.5817" y="58.3206" clip-path="url(#clipPath2)" fill="none" width="22.3398" height="17.9688" stroke-miterlimit="1.6"/>
      <text x="455.5817" xml:space="preserve" y="71.4593" clip-path="url(#clipPath2)" font-family="sans-serif" stroke="none">set</text>
    </g>
    <g text-rendering="geometricPrecision" stroke-miterlimit="1.45" shape-rendering="geometricPrecision" transform="matrix(1,0,0,1,-46,-25)" stroke-linecap="butt">
      <path fill="none" d="M312.2935 64.5245 L311.0134 67.2377 L447.6272 131.6963 L381.6956 260.8725 L381.6956 260.8725 L317.8948 268.3043 L317.8948 268.3043 L320.1761 263.2564 L306 271.2 L321.6224 275.6725 L318.2419 271.2841 L318.2419 271.2841 L382.8402 263.7595 L383.6377 263.6666 L384.0027 262.9514 L451.0027 131.6819 L451.7061 130.3037 L450.3067 129.6434 L312.2935 64.5245 Z" clip-path="url(#clipPath2)"/>
      <rect x="394.8864" y="187.6504" clip-path="url(#clipPath2)" fill="white" width="42.5605" height="17.9688" stroke="none" stroke-width="3"/>
      <rect stroke-linecap="square" x="394.8864" y="187.6504" clip-path="url(#clipPath2)" fill="none" width="42.5605" height="17.9688" stroke-miterlimit="1.6"/>
      <text x="396.8864" xml:space="preserve" y="200.7891" clip-path="url(#clipPath2)" font-family="sans-serif" stroke="none">reflect</text>
    </g>
    <g text-rendering="geometricPrecision" stroke-miterlimit="1.45" shape-rendering="geometricPrecision" transform="matrix(1,0,0,1,-46,-25)" stroke-linecap="butt">
      <path fill="none" d="M310.356 65.2857 L279.3174 122.6017 L279.3174 122.6017 L276.4977 117.8337 L274.8506 134 L287.4894 123.7861 L281.9554 124.0303 L281.9554 124.0303 L312.994 66.7143 L310.356 65.2857 Z" clip-path="url(#clipPath2)"/>
      <rect x="260.4861" y="93.5156" clip-path="url(#clipPath2)" fill="white" width="62.8457" height="17.9688" stroke="none" stroke-width="3"/>
      <rect stroke-linecap="square" x="260.4861" y="93.5156" clip-path="url(#clipPath2)" fill="none" width="62.8457" height="17.9688" stroke-miterlimit="1.6"/>
      <text x="262.4861" xml:space="preserve" y="106.6543" clip-path="url(#clipPath2)" font-family="sans-serif" stroke="none">clean tidy</text>
    </g>
  </g>
</svg>
