<?xml version="1.0" encoding="UTF-8" standalone="no"?>
<!DOCTYPE svg PUBLIC "-//W3C//DTD SVG 1.1//EN"
 "http://www.w3.org/Graphics/SVG/1.1/DTD/svg11.dtd">
<!-- Generated by graphviz version 2.43.0 (0)
 -->
<!-- Title: G Pages: 1 -->
<svg width="474pt" height="45pt"
 viewBox="0.00 0.00 474.00 45.00" xmlns="http://www.w3.org/2000/svg" xmlns:xlink="http://www.w3.org/1999/xlink">
<g id="graph0" class="graph" transform="scale(1 1) rotate(0) translate(4 41)">
<title>G</title>
<polygon fill="white" stroke="transparent" points="-4,4 -4,-41 470,-41 470,4 -4,4"/>
<!-- mulle&#45;sde -->
<g id="node1" class="node">
<title>mulle&#45;sde</title>
<polygon fill="none" stroke="black" points="0,-0.5 0,-36.5 86,-36.5 86,-0.5 0,-0.5"/>
<text text-anchor="middle" x="43" y="-14.8" font-family="Times,serif" font-size="14.00">mulle&#45;sde</text>
</g>
<!-- mulle&#45;sourcetree -->
<g id="node2" class="node">
<title>mulle&#45;sourcetree</title>
<polygon fill="none" stroke="dodgerblue" stroke-width="2" points="159,-0.5 159,-36.5 296,-36.5 296,-0.5 159,-0.5"/>
<text text-anchor="middle" x="227.5" y="-14.8" font-family="Times,serif" font-size="14.00" fill="dodgerblue">mulle&#45;sourcetree</text>
</g>
<!-- mulle&#45;sde&#45;&gt;mulle&#45;sourcetree -->
<g id="edge1" class="edge">
<title>mulle&#45;sde&#45;&gt;mulle&#45;sourcetree</title>
<path fill="none" stroke="black" stroke-dasharray="1,5" d="M86.33,-18.5C104.87,-18.5 127.24,-18.5 148.61,-18.5"/>
<polygon fill="black" stroke="black" points="148.67,-22 158.67,-18.5 148.67,-15 148.67,-22"/>
<text text-anchor="middle" x="122.5" y="-22.3" font-family="Times,serif" font-size="14.00"> runs</text>
</g>
<!-- mulle&#45;fetch -->
<g id="node3" class="node">
<title>mulle&#45;fetch</title>
<polygon fill="none" stroke="black" points="369,-0.5 369,-36.5 466,-36.5 466,-0.5 369,-0.5"/>
<text text-anchor="middle" x="417.5" y="-14.8" font-family="Times,serif" font-size="14.00">mulle&#45;fetch</text>
</g>
<!-- mulle&#45;sourcetree&#45;&gt;mulle&#45;fetch -->
<g id="edge2" class="edge">
<title>mulle&#45;sourcetree&#45;&gt;mulle&#45;fetch</title>
<path fill="none" stroke="black" stroke-dasharray="1,5" d="M296.11,-18.5C316.63,-18.5 338.99,-18.5 358.8,-18.5"/>
<polygon fill="black" stroke="black" points="358.91,-22 368.91,-18.5 358.91,-15 358.91,-22"/>
<text text-anchor="middle" x="332.5" y="-22.3" font-family="Times,serif" font-size="14.00"> runs</text>
</g>
</g>
</svg>
