<?xml version="1.0" encoding="UTF-8" standalone="no"?>
<!DOCTYPE svg PUBLIC "-//W3C//DTD SVG 1.1//EN"
 "http://www.w3.org/Graphics/SVG/1.1/DTD/svg11.dtd">
<!-- Generated by graphviz version 2.43.0 (0)
 -->
<!-- Title: G Pages: 1 -->
<svg width="358pt" height="332pt"
 viewBox="0.00 0.00 357.50 332.00" xmlns="http://www.w3.org/2000/svg" xmlns:xlink="http://www.w3.org/1999/xlink">
<g id="graph0" class="graph" transform="scale(1 1) rotate(0) translate(4 328)">
<title>G</title>
<polygon fill="white" stroke="transparent" points="-4,4 -4,-328 353.5,-328 353.5,4 -4,4"/>
<!-- dedupe -->
<g id="node1" class="node">
<title>dedupe</title>
<text text-anchor="middle" x="174.5" y="-302.3" font-family="Times,serif" font-size="14.00">dedupe</text>
</g>
<!-- visit -->
<g id="node2" class="node">
<title>visit</title>
<polygon fill="none" stroke="black" points="201.5,-252 147.5,-252 147.5,-216 201.5,-216 201.5,-252"/>
<text text-anchor="middle" x="174.5" y="-230.3" font-family="Times,serif" font-size="14.00">visit</text>
</g>
<!-- dedupe&#45;&gt;visit -->
<g id="edge1" class="edge">
<title>dedupe&#45;&gt;visit</title>
<path fill="none" stroke="black" d="M174.5,-287.7C174.5,-279.98 174.5,-270.71 174.5,-262.11"/>
<polygon fill="black" stroke="black" points="178,-262.1 174.5,-252.1 171,-262.1 178,-262.1"/>
</g>
<!-- callback&#45;filter -->
<g id="node3" class="node">
<title>callback&#45;filter</title>
<text text-anchor="middle" x="108.5" y="-158.3" font-family="Times,serif" font-size="14.00">callback&#45;filter</text>
</g>
<!-- visit&#45;&gt;callback&#45;filter -->
<g id="edge2" class="edge">
<title>visit&#45;&gt;callback&#45;filter</title>
<path fill="none" stroke="black" d="M158.19,-215.7C150.19,-207.22 140.43,-196.86 131.68,-187.58"/>
<polygon fill="black" stroke="black" points="134.03,-184.98 124.63,-180.1 128.94,-189.78 134.03,-184.98"/>
</g>
<!-- descend&#45;filter -->
<g id="node4" class="node">
<title>descend&#45;filter</title>
<text text-anchor="middle" x="253.5" y="-158.3" font-family="Times,serif" font-size="14.00">descend&#45;filter</text>
</g>
<!-- visit&#45;&gt;descend&#45;filter -->
<g id="edge5" class="edge">
<title>visit&#45;&gt;descend&#45;filter</title>
<path fill="none" stroke="black" d="M194.03,-215.7C203.88,-206.97 215.99,-196.24 226.7,-186.75"/>
<polygon fill="black" stroke="black" points="229.03,-189.36 234.2,-180.1 224.39,-184.12 229.03,-189.36"/>
</g>
<!-- callback&#45;permissions -->
<g id="node5" class="node">
<title>callback&#45;permissions</title>
<text text-anchor="middle" x="82.5" y="-86.3" font-family="Times,serif" font-size="14.00">callback&#45;permissions</text>
</g>
<!-- callback&#45;filter&#45;&gt;callback&#45;permissions -->
<g id="edge3" class="edge">
<title>callback&#45;filter&#45;&gt;callback&#45;permissions</title>
<path fill="none" stroke="black" d="M102.07,-143.7C99.14,-135.81 95.61,-126.3 92.36,-117.55"/>
<polygon fill="black" stroke="black" points="95.62,-116.26 88.85,-108.1 89.05,-118.7 95.62,-116.26"/>
</g>
<!-- descend&#45;permissions -->
<g id="node6" class="node">
<title>descend&#45;permissions</title>
<text text-anchor="middle" x="266.5" y="-86.3" font-family="Times,serif" font-size="14.00">descend&#45;permissions</text>
</g>
<!-- descend&#45;filter&#45;&gt;descend&#45;permissions -->
<g id="edge6" class="edge">
<title>descend&#45;filter&#45;&gt;descend&#45;permissions</title>
<path fill="none" stroke="black" d="M256.71,-143.7C258.15,-135.98 259.87,-126.71 261.46,-118.11"/>
<polygon fill="black" stroke="black" points="264.94,-118.58 263.32,-108.1 258.06,-117.3 264.94,-118.58"/>
</g>
<!-- callback -->
<g id="node7" class="node">
<title>callback</title>
<polygon fill="none" stroke="black" points="119.5,-36 45.5,-36 45.5,0 119.5,0 119.5,-36"/>
<text text-anchor="middle" x="82.5" y="-14.3" font-family="Times,serif" font-size="14.00">callback</text>
</g>
<!-- callback&#45;permissions&#45;&gt;callback -->
<g id="edge4" class="edge">
<title>callback&#45;permissions&#45;&gt;callback</title>
<path fill="none" stroke="black" d="M82.5,-71.7C82.5,-63.98 82.5,-54.71 82.5,-46.11"/>
<polygon fill="black" stroke="black" points="86,-46.1 82.5,-36.1 79,-46.1 86,-46.1"/>
</g>
<!-- descend -->
<g id="node8" class="node">
<title>descend</title>
<polygon fill="none" stroke="black" points="304,-36 229,-36 229,0 304,0 304,-36"/>
<text text-anchor="middle" x="266.5" y="-14.3" font-family="Times,serif" font-size="14.00">descend</text>
</g>
<!-- descend&#45;permissions&#45;&gt;descend -->
<g id="edge7" class="edge">
<title>descend&#45;permissions&#45;&gt;descend</title>
<path fill="none" stroke="black" d="M266.5,-71.7C266.5,-63.98 266.5,-54.71 266.5,-46.11"/>
<polygon fill="black" stroke="black" points="270,-46.1 266.5,-36.1 263,-46.1 270,-46.1"/>
</g>
</g>
</svg>
