<?xml version="1.0" encoding="UTF-8" standalone="no"?>
<!DOCTYPE svg PUBLIC "-//W3C//DTD SVG 1.1//EN"
 "http://www.w3.org/Graphics/SVG/1.1/DTD/svg11.dtd">
<!-- Generated by graphviz version 2.43.0 (0)
 -->
<!-- Title: G Pages: 1 -->
<svg width="244pt" height="220pt"
 viewBox="0.00 0.00 244.00 220.00" xmlns="http://www.w3.org/2000/svg" xmlns:xlink="http://www.w3.org/1999/xlink">
<g id="graph0" class="graph" transform="scale(1 1) rotate(0) translate(4 216)">
<title>G</title>
<polygon fill="white" stroke="transparent" points="-4,4 -4,-216 240,-216 240,4 -4,4"/>
<g id="clust1" class="cluster">
<title>cluster0</title>
</g>
<g id="clust5" class="cluster">
<title>cluster1</title>
</g>
<!-- a -->
<g id="node1" class="node">
<title>a</title>
<polygon fill="none" stroke="black" points="106,-196 52,-196 52,-160 106,-160 106,-196"/>
<text text-anchor="middle" x="79" y="-174.3" font-family="Times,serif" font-size="14.00">a</text>
</g>
<!-- b -->
<g id="node2" class="node">
<title>b</title>
<polygon fill="none" stroke="black" points="70,-124 16,-124 16,-88 70,-88 70,-124"/>
<text text-anchor="middle" x="43" y="-102.3" font-family="Times,serif" font-size="14.00">b</text>
</g>
<!-- a&#45;&gt;b -->
<g id="edge1" class="edge">
<title>a&#45;&gt;b</title>
<path fill="none" stroke="black" d="M70.1,-159.7C66,-151.73 61.05,-142.1 56.51,-133.26"/>
<polygon fill="black" stroke="black" points="59.48,-131.4 51.8,-124.1 53.26,-134.6 59.48,-131.4"/>
</g>
<!-- c -->
<g id="node3" class="node">
<title>c</title>
<polygon fill="none" stroke="black" points="142,-124 88,-124 88,-88 142,-88 142,-124"/>
<text text-anchor="middle" x="115" y="-102.3" font-family="Times,serif" font-size="14.00">c</text>
</g>
<!-- a&#45;&gt;c -->
<g id="edge2" class="edge">
<title>a&#45;&gt;c</title>
<path fill="none" stroke="black" d="M87.9,-159.7C92,-151.73 96.95,-142.1 101.49,-133.26"/>
<polygon fill="black" stroke="black" points="104.74,-134.6 106.2,-124.1 98.52,-131.4 104.74,-134.6"/>
</g>
<!-- d -->
<g id="node4" class="node">
<title>d</title>
<polygon fill="none" stroke="black" points="106,-52 52,-52 52,-16 106,-16 106,-52"/>
<text text-anchor="middle" x="79" y="-30.3" font-family="Times,serif" font-size="14.00">d</text>
</g>
<!-- b&#45;&gt;d -->
<g id="edge3" class="edge">
<title>b&#45;&gt;d</title>
<path fill="none" stroke="black" d="M51.9,-87.7C56,-79.73 60.95,-70.1 65.49,-61.26"/>
<polygon fill="black" stroke="black" points="68.74,-62.6 70.2,-52.1 62.52,-59.4 68.74,-62.6"/>
</g>
<!-- c&#45;&gt;d -->
<g id="edge4" class="edge">
<title>c&#45;&gt;d</title>
<path fill="none" stroke="black" d="M106.1,-87.7C102,-79.73 97.05,-70.1 92.51,-61.26"/>
<polygon fill="black" stroke="black" points="95.48,-59.4 87.8,-52.1 89.26,-62.6 95.48,-59.4"/>
</g>
<!-- av -->
<g id="node5" class="node">
<title>av</title>
<polygon fill="none" stroke="black" points="220,-52 166,-52 166,-16 220,-16 220,-52"/>
<text text-anchor="middle" x="193" y="-30.3" font-family="Times,serif" font-size="14.00">a</text>
</g>
<!-- c&#45;&gt;av -->
<g id="edge5" class="edge">
<title>c&#45;&gt;av</title>
<path fill="none" stroke="black" stroke-dasharray="1,5" d="M150,-73.59C152.43,-71.41 154.88,-69.21 157.32,-67.02"/>
<polygon fill="black" stroke="black" points="160.04,-69.28 165.15,-60 155.37,-64.07 160.04,-69.28"/>
</g>
</g>
</svg>
