<?xml version="1.0" encoding="UTF-8"?><svg xmlns="http://www.w3.org/2000/svg" xmlns:xlink="http://www.w3.org/1999/xlink" fill-opacity="1" color-rendering="auto" color-interpolation="auto" text-rendering="auto" stroke="black" stroke-linecap="square" width="645" stroke-miterlimit="10" shape-rendering="auto" stroke-opacity="1" fill="black" stroke-dasharray="none" font-weight="normal" stroke-width="1" height="518" font-family="'Dialog'" font-style="normal" stroke-linejoin="miter" font-size="12px" stroke-dashoffset="0" image-rendering="auto">
  <!--Generated by ySVG 2.5-->
  <defs id="genericDefs"/>
  <g>
    <defs id="defs1">
      <clipPath clipPathUnits="userSpaceOnUse" id="clipPath1">
        <path d="M0 0 L645 0 L645 518 L0 518 L0 0 Z"/>
      </clipPath>
      <clipPath clipPathUnits="userSpaceOnUse" id="clipPath2">
        <path d="M192 48 L837 48 L837 566 L192 566 L192 48 Z"/>
      </clipPath>
    </defs>
    <g fill="white" text-rendering="geometricPrecision" shape-rendering="geometricPrecision" transform="translate(-192,-48)" stroke="white">
      <rect x="192" width="645" height="518" y="48" clip-path="url(#clipPath2)" stroke="none"/>
    </g>
    <g fill="rgb(204,255,204)" text-rendering="geometricPrecision" shape-rendering="geometricPrecision" transform="matrix(1,0,0,1,-192,-48)" stroke="rgb(204,255,204)">
      <path d="M266 282 L349 267 L432 282 L349 297 Z" fill-rule="evenodd" clip-path="url(#clipPath2)" stroke="none"/>
    </g>
    <g text-rendering="geometricPrecision" stroke-miterlimit="1.45" shape-rendering="geometricPrecision" transform="matrix(1,0,0,1,-192,-48)" stroke-linecap="butt">
      <path fill="none" d="M266 282 L349 267 L432 282 L349 297 Z" fill-rule="evenodd" clip-path="url(#clipPath2)"/>
      <text x="324.9062" xml:space="preserve" y="286.5352" clip-path="url(#clipPath2)" font-family="sans-serif" stroke="none">descend</text>
    </g>
    <g fill="rgb(255,204,0)" text-rendering="geometricPrecision" shape-rendering="geometricPrecision" transform="matrix(1,0,0,1,-192,-48)" stroke="rgb(255,204,0)">
      <rect x="266" width="166" height="30" y="131" clip-path="url(#clipPath2)" stroke="none"/>
    </g>
    <g text-rendering="geometricPrecision" stroke-miterlimit="1.45" shape-rendering="geometricPrecision" transform="matrix(1,0,0,1,-192,-48)" stroke-linecap="butt">
      <rect fill="none" x="266" width="166" height="30" y="131" clip-path="url(#clipPath2)"/>
      <text x="319.2109" xml:space="preserve" y="150.5352" clip-path="url(#clipPath2)" font-family="sans-serif" stroke="none">next entry</text>
    </g>
    <g fill="rgb(255,204,0)" text-rendering="geometricPrecision" shape-rendering="geometricPrecision" transform="matrix(1,0,0,1,-192,-48)" stroke="rgb(255,204,0)">
      <rect x="564" width="166" height="30" y="267" clip-path="url(#clipPath2)" stroke="none"/>
    </g>
    <g text-rendering="geometricPrecision" stroke-miterlimit="1.45" shape-rendering="geometricPrecision" transform="matrix(1,0,0,1,-192,-48)" stroke-linecap="butt">
      <rect fill="none" x="564" width="166" height="30" y="267" clip-path="url(#clipPath2)"/>
      <text x="612.4092" xml:space="preserve" y="286.5352" clip-path="url(#clipPath2)" font-family="sans-serif" stroke="none">open config</text>
    </g>
    <g fill="rgb(204,255,204)" text-rendering="geometricPrecision" shape-rendering="geometricPrecision" transform="matrix(1,0,0,1,-192,-48)" stroke="rgb(204,255,204)">
      <path d="M564 531 L647 516 L730 531 L647 546 Z" fill-rule="evenodd" clip-path="url(#clipPath2)" stroke="none"/>
    </g>
    <g text-rendering="geometricPrecision" stroke-miterlimit="1.45" shape-rendering="geometricPrecision" transform="matrix(1,0,0,1,-192,-48)" stroke-linecap="butt">
      <path fill="none" d="M564 531 L647 516 L730 531 L647 546 Z" fill-rule="evenodd" clip-path="url(#clipPath2)"/>
      <text x="622.9062" xml:space="preserve" y="535.5352" clip-path="url(#clipPath2)" font-family="sans-serif" stroke="none">descend</text>
    </g>
    <g fill="rgb(255,204,0)" text-rendering="geometricPrecision" shape-rendering="geometricPrecision" transform="matrix(1,0,0,1,-192,-48)" stroke="rgb(255,204,0)">
      <rect x="564" width="166" height="30" y="451.5" clip-path="url(#clipPath2)" stroke="none"/>
    </g>
    <g text-rendering="geometricPrecision" stroke-miterlimit="1.45" shape-rendering="geometricPrecision" transform="matrix(1,0,0,1,-192,-48)" stroke-linecap="butt">
      <rect fill="none" x="564" width="166" height="30" y="451.5" clip-path="url(#clipPath2)"/>
      <text x="610.8037" xml:space="preserve" y="471.0352" clip-path="url(#clipPath2)" font-family="sans-serif" stroke="none">output entry</text>
    </g>
    <g fill="rgb(204,255,204)" text-rendering="geometricPrecision" shape-rendering="geometricPrecision" transform="matrix(1,0,0,1,-192,-48)" stroke="rgb(204,255,204)">
      <path d="M564 402 L647 387 L730 402 L647 417 Z" fill-rule="evenodd" clip-path="url(#clipPath2)" stroke="none"/>
    </g>
    <g text-rendering="geometricPrecision" stroke-miterlimit="1.45" shape-rendering="geometricPrecision" transform="matrix(1,0,0,1,-192,-48)" stroke-linecap="butt">
      <path fill="none" d="M564 402 L647 387 L730 402 L647 417 Z" fill-rule="evenodd" clip-path="url(#clipPath2)"/>
      <text x="619.7568" xml:space="preserve" y="406.5352" clip-path="url(#clipPath2)" font-family="sans-serif" stroke="none">bequeath</text>
    </g>
    <g fill="rgb(255,204,0)" text-rendering="geometricPrecision" shape-rendering="geometricPrecision" transform="matrix(1,0,0,1,-192,-48)" stroke="rgb(255,204,0)">
      <rect x="266" width="166" height="30" y="199" clip-path="url(#clipPath2)" stroke="none"/>
    </g>
    <g text-rendering="geometricPrecision" stroke-miterlimit="1.45" shape-rendering="geometricPrecision" transform="matrix(1,0,0,1,-192,-48)" stroke-linecap="butt">
      <rect fill="none" x="266" width="166" height="30" y="199" clip-path="url(#clipPath2)"/>
      <text x="312.8037" xml:space="preserve" y="218.5352" clip-path="url(#clipPath2)" font-family="sans-serif" stroke="none">output entry</text>
    </g>
    <g fill="rgb(255,204,0)" text-rendering="geometricPrecision" shape-rendering="geometricPrecision" transform="matrix(1,0,0,1,-192,-48)" stroke="rgb(255,204,0)">
      <rect x="564" width="166" height="30" y="327" clip-path="url(#clipPath2)" stroke="none"/>
    </g>
    <g text-rendering="geometricPrecision" stroke-miterlimit="1.45" shape-rendering="geometricPrecision" transform="matrix(1,0,0,1,-192,-48)" stroke-linecap="butt">
      <rect fill="none" x="564" width="166" height="30" y="327" clip-path="url(#clipPath2)"/>
      <text x="617.2109" xml:space="preserve" y="346.5352" clip-path="url(#clipPath2)" font-family="sans-serif" stroke="none">next entry</text>
    </g>
    <g fill="rgb(255,204,0)" text-rendering="geometricPrecision" shape-rendering="geometricPrecision" transform="matrix(1,0,0,1,-192,-48)" stroke="rgb(255,204,0)">
      <rect x="266" width="166" height="30" y="63" clip-path="url(#clipPath2)" stroke="none"/>
    </g>
    <g text-rendering="geometricPrecision" stroke-miterlimit="1.45" shape-rendering="geometricPrecision" transform="matrix(1,0,0,1,-192,-48)" stroke-linecap="butt">
      <rect fill="none" x="266" width="166" height="30" y="63" clip-path="url(#clipPath2)"/>
      <text x="314.4092" xml:space="preserve" y="82.5352" clip-path="url(#clipPath2)" font-family="sans-serif" stroke="none">open config</text>
      <path fill="none" d="M265.9702 282 L207 282 L207 146 L258 146" clip-path="url(#clipPath2)"/>
      <path d="M266 146 L254 141 L257 146 L254 151 Z" clip-path="url(#clipPath2)" stroke="none"/>
      <text x="230.0658" xml:space="preserve" y="294.6016" clip-path="url(#clipPath2)" font-family="sans-serif" stroke="none">NO</text>
      <path fill="none" d="M432.0369 282 L520 282 L556.0068 282" clip-path="url(#clipPath2)"/>
      <path d="M564.0068 282 L552.0068 277 L555.0068 282 L552.0068 287 Z" clip-path="url(#clipPath2)" stroke="none"/>
      <text x="468.6785" xml:space="preserve" y="295.6016" clip-path="url(#clipPath2)" font-family="sans-serif" stroke="none">YES</text>
      <path fill="none" d="M730.0139 531 L822 531 L822 282 L738 282" clip-path="url(#clipPath2)"/>
      <path d="M730 282 L742 287 L739 282 L742 277 Z" clip-path="url(#clipPath2)" stroke="none"/>
      <text x="759.0201" xml:space="preserve" y="527.4688" clip-path="url(#clipPath2)" font-family="sans-serif" stroke="none">YES</text>
      <path fill="none" d="M647 481.5 L647 507.9663" clip-path="url(#clipPath2)"/>
      <path d="M647 515.9663 L652 503.9663 L647 506.9663 L642 503.9663 Z" clip-path="url(#clipPath2)" stroke="none"/>
      <path fill="none" d="M647 417.0237 L647 443.4955" clip-path="url(#clipPath2)"/>
      <path d="M647 451.4955 L652 439.4955 L647 442.4955 L642 439.4955 Z" clip-path="url(#clipPath2)" stroke="none"/>
      <text x="648" xml:space="preserve" y="435.6016" clip-path="url(#clipPath2)" font-family="sans-serif" stroke="none">YES</text>
      <path fill="none" d="M349 161 L349 191" clip-path="url(#clipPath2)"/>
      <path d="M349 199 L354 187 L349 190 L344 187 Z" clip-path="url(#clipPath2)" stroke="none"/>
      <path fill="none" d="M349 229 L349 259.0161" clip-path="url(#clipPath2)"/>
      <path d="M349 267.0161 L354 255.0161 L349 258.0161 L344 255.0161 Z" clip-path="url(#clipPath2)" stroke="none"/>
      <path fill="none" d="M647 297 L647 319" clip-path="url(#clipPath2)"/>
      <path d="M647 327 L652 315 L647 318 L642 315 Z" clip-path="url(#clipPath2)" stroke="none"/>
      <path fill="none" d="M730.02 402 L797 402 L797 342 L738 342" clip-path="url(#clipPath2)"/>
      <path d="M730 342 L742 347 L739 342 L742 337 Z" clip-path="url(#clipPath2)" stroke="none"/>
      <text x="761.3052" xml:space="preserve" y="415.6016" clip-path="url(#clipPath2)" font-family="sans-serif" stroke="none">NO</text>
      <path fill="none" d="M564.0129 531 L518 531 L518 342 L556 342" clip-path="url(#clipPath2)"/>
      <path d="M564 342 L552 337 L555 342 L552 347 Z" clip-path="url(#clipPath2)" stroke="none"/>
      <text x="543" xml:space="preserve" y="545.6016" clip-path="url(#clipPath2)" font-family="sans-serif" stroke="none">NO</text>
      <path fill="none" d="M647 357 L647 379.0146" clip-path="url(#clipPath2)"/>
      <path d="M647 387.0146 L652 375.0146 L647 378.0146 L642 375.0146 Z" clip-path="url(#clipPath2)" stroke="none"/>
      <path fill="none" d="M349 93 L349 123" clip-path="url(#clipPath2)"/>
      <path d="M349 131 L354 119 L349 122 L344 119 Z" clip-path="url(#clipPath2)" stroke="none"/>
    </g>
  </g>
</svg>
