<svg xmlns="http://www.w3.org/2000/svg" xmlns:xlink="http://www.w3.org/1999/xlink" width="645" height="518" fill="#000" fill-opacity="1" stroke="#000" stroke-dasharray="none" stroke-dashoffset="0" stroke-linecap="square" stroke-linejoin="miter" stroke-miterlimit="10" stroke-opacity="1" stroke-width="1" color-interpolation="auto" color-rendering="auto" font-family="'Dialog'" font-size="12" font-style="normal" font-weight="normal" image-rendering="auto" shape-rendering="auto" text-rendering="auto"><g><defs id="defs1"><clipPath id="clipPath1" clipPathUnits="userSpaceOnUse"><path d="M0 0 L645 0 L645 518 L0 518 L0 0 Z"/></clipPath><clipPath id="clipPath2" clipPathUnits="userSpaceOnUse"><path d="M192 48 L837 48 L837 566 L192 566 L192 48 Z"/></clipPath></defs><g fill="#fff" stroke="#fff" shape-rendering="geometricPrecision" text-rendering="geometricPrecision" transform="translate(-192,-48)"><rect width="645" height="518" x="192" y="48" stroke="none" clip-path="url(#clipPath2)"/></g><g fill="#CFC" stroke="#CFC" shape-rendering="geometricPrecision" text-rendering="geometricPrecision"><path fill-rule="evenodd" stroke="none" d="M266 282 L349 267 L432 282 L349 297 Z" clip-path="url(#clipPath2)" transform="matrix(1,0,0,1,-192,-48)"/></g><g stroke-linecap="butt" stroke-miterlimit="1.45" shape-rendering="geometricPrecision" text-rendering="geometricPrecision"><path fill="none" fill-rule="evenodd" d="M266 282 L349 267 L432 282 L349 297 Z" clip-path="url(#clipPath2)" transform="matrix(1,0,0,1,-192,-48)"/><text x="324.906" y="286.535" stroke="none" clip-path="url(#clipPath2)" font-family="sans-serif" transform="matrix(1,0,0,1,-192,-48)" xml:space="preserve">descend</text></g><g fill="#FC0" stroke="#FC0" shape-rendering="geometricPrecision" text-rendering="geometricPrecision" transform="matrix(1,0,0,1,-192,-48)"><rect width="166" height="30" x="266" y="131" stroke="none" clip-path="url(#clipPath2)"/></g><g stroke-linecap="butt" stroke-miterlimit="1.45" shape-rendering="geometricPrecision" text-rendering="geometricPrecision" transform="matrix(1,0,0,1,-192,-48)"><rect width="166" height="30" x="266" y="131" fill="none" clip-path="url(#clipPath2)"/><text x="319.211" y="150.535" stroke="none" clip-path="url(#clipPath2)" font-family="sans-serif" xml:space="preserve">next entry</text></g><g fill="#FC0" stroke="#FC0" shape-rendering="geometricPrecision" text-rendering="geometricPrecision" transform="matrix(1,0,0,1,-192,-48)"><rect width="166" height="30" x="564" y="267" stroke="none" clip-path="url(#clipPath2)"/></g><g stroke-linecap="butt" stroke-miterlimit="1.45" shape-rendering="geometricPrecision" text-rendering="geometricPrecision" transform="matrix(1,0,0,1,-192,-48)"><rect width="166" height="30" x="564" y="267" fill="none" clip-path="url(#clipPath2)"/><text x="612.409" y="286.535" stroke="none" clip-path="url(#clipPath2)" font-family="sans-serif" xml:space="preserve">open config</text></g><g fill="#CFC" stroke="#CFC" shape-rendering="geometricPrecision" text-rendering="geometricPrecision"><path fill-rule="evenodd" stroke="none" d="M564 531 L647 516 L730 531 L647 546 Z" clip-path="url(#clipPath2)" transform="matrix(1,0,0,1,-192,-48)"/></g><g stroke-linecap="butt" stroke-miterlimit="1.45" shape-rendering="geometricPrecision" text-rendering="geometricPrecision"><path fill="none" fill-rule="evenodd" d="M564 531 L647 516 L730 531 L647 546 Z" clip-path="url(#clipPath2)" transform="matrix(1,0,0,1,-192,-48)"/><text x="622.906" y="535.535" stroke="none" clip-path="url(#clipPath2)" font-family="sans-serif" transform="matrix(1,0,0,1,-192,-48)" xml:space="preserve">descend</text></g><g fill="#FC0" stroke="#FC0" shape-rendering="geometricPrecision" text-rendering="geometricPrecision" transform="matrix(1,0,0,1,-192,-48)"><rect width="166" height="30" x="564" y="451.5" stroke="none" clip-path="url(#clipPath2)"/></g><g stroke-linecap="butt" stroke-miterlimit="1.45" shape-rendering="geometricPrecision" text-rendering="geometricPrecision" transform="matrix(1,0,0,1,-192,-48)"><rect width="166" height="30" x="564" y="451.5" fill="none" clip-path="url(#clipPath2)"/><text x="610.804" y="471.035" stroke="none" clip-path="url(#clipPath2)" font-family="sans-serif" xml:space="preserve">output entry</text></g><g fill="#CFC" stroke="#CFC" shape-rendering="geometricPrecision" text-rendering="geometricPrecision"><path fill-rule="evenodd" stroke="none" d="M564 402 L647 387 L730 402 L647 417 Z" clip-path="url(#clipPath2)" transform="matrix(1,0,0,1,-192,-48)"/></g><g stroke-linecap="butt" stroke-miterlimit="1.45" shape-rendering="geometricPrecision" text-rendering="geometricPrecision"><path fill="none" fill-rule="evenodd" d="M564 402 L647 387 L730 402 L647 417 Z" clip-path="url(#clipPath2)" transform="matrix(1,0,0,1,-192,-48)"/><text x="619.757" y="406.535" stroke="none" clip-path="url(#clipPath2)" font-family="sans-serif" transform="matrix(1,0,0,1,-192,-48)" xml:space="preserve">bequeath</text></g><g fill="#FC0" stroke="#FC0" shape-rendering="geometricPrecision" text-rendering="geometricPrecision" transform="matrix(1,0,0,1,-192,-48)"><rect width="166" height="30" x="266" y="199" stroke="none" clip-path="url(#clipPath2)"/></g><g stroke-linecap="butt" stroke-miterlimit="1.45" shape-rendering="geometricPrecision" text-rendering="geometricPrecision" transform="matrix(1,0,0,1,-192,-48)"><rect width="166" height="30" x="266" y="199" fill="none" clip-path="url(#clipPath2)"/><text x="312.804" y="218.535" stroke="none" clip-path="url(#clipPath2)" font-family="sans-serif" xml:space="preserve">output entry</text></g><g fill="#FC0" stroke="#FC0" shape-rendering="geometricPrecision" text-rendering="geometricPrecision" transform="matrix(1,0,0,1,-192,-48)"><rect width="166" height="30" x="564" y="327" stroke="none" clip-path="url(#clipPath2)"/></g><g stroke-linecap="butt" stroke-miterlimit="1.45" shape-rendering="geometricPrecision" text-rendering="geometricPrecision" transform="matrix(1,0,0,1,-192,-48)"><rect width="166" height="30" x="564" y="327" fill="none" clip-path="url(#clipPath2)"/><text x="617.211" y="346.535" stroke="none" clip-path="url(#clipPath2)" font-family="sans-serif" xml:space="preserve">next entry</text></g><g fill="#FC0" stroke="#FC0" shape-rendering="geometricPrecision" text-rendering="geometricPrecision" transform="matrix(1,0,0,1,-192,-48)"><rect width="166" height="30" x="266" y="63" stroke="none" clip-path="url(#clipPath2)"/></g><g stroke-linecap="butt" stroke-miterlimit="1.45" shape-rendering="geometricPrecision" text-rendering="geometricPrecision" transform="matrix(1,0,0,1,-192,-48)"><rect width="166" height="30" x="266" y="63" fill="none" clip-path="url(#clipPath2)"/><text x="314.409" y="82.535" stroke="none" clip-path="url(#clipPath2)" font-family="sans-serif" xml:space="preserve">open config</text><path fill="none" d="M265.9702 282 L207 282 L207 146 L258 146" clip-path="url(#clipPath2)"/><path stroke="none" d="M266 146 L254 141 L257 146 L254 151 Z" clip-path="url(#clipPath2)"/><text x="230.066" y="294.602" stroke="none" clip-path="url(#clipPath2)" font-family="sans-serif" xml:space="preserve">NO</text><path fill="none" d="M432.0369 282 L520 282 L556.0068 282" clip-path="url(#clipPath2)"/><path stroke="none" d="M564.0068 282 L552.0068 277 L555.0068 282 L552.0068 287 Z" clip-path="url(#clipPath2)"/><text x="468.678" y="295.602" stroke="none" clip-path="url(#clipPath2)" font-family="sans-serif" xml:space="preserve">YES</text><path fill="none" d="M730.0139 531 L822 531 L822 282 L738 282" clip-path="url(#clipPath2)"/><path stroke="none" d="M730 282 L742 287 L739 282 L742 277 Z" clip-path="url(#clipPath2)"/><text x="759.02" y="527.469" stroke="none" clip-path="url(#clipPath2)" font-family="sans-serif" xml:space="preserve">YES</text><path fill="none" d="M647 481.5 L647 507.9663" clip-path="url(#clipPath2)"/><path stroke="none" d="M647 515.9663 L652 503.9663 L647 506.9663 L642 503.9663 Z" clip-path="url(#clipPath2)"/><path fill="none" d="M647 417.0237 L647 443.4955" clip-path="url(#clipPath2)"/><path stroke="none" d="M647 451.4955 L652 439.4955 L647 442.4955 L642 439.4955 Z" clip-path="url(#clipPath2)"/><text x="648" y="435.602" stroke="none" clip-path="url(#clipPath2)" font-family="sans-serif" xml:space="preserve">YES</text><path fill="none" d="M349 161 L349 191" clip-path="url(#clipPath2)"/><path stroke="none" d="M349 199 L354 187 L349 190 L344 187 Z" clip-path="url(#clipPath2)"/><path fill="none" d="M349 229 L349 259.0161" clip-path="url(#clipPath2)"/><path stroke="none" d="M349 267.0161 L354 255.0161 L349 258.0161 L344 255.0161 Z" clip-path="url(#clipPath2)"/><path fill="none" d="M647 297 L647 319" clip-path="url(#clipPath2)"/><path stroke="none" d="M647 327 L652 315 L647 318 L642 315 Z" clip-path="url(#clipPath2)"/><path fill="none" d="M730.02 402 L797 402 L797 342 L738 342" clip-path="url(#clipPath2)"/><path stroke="none" d="M730 342 L742 347 L739 342 L742 337 Z" clip-path="url(#clipPath2)"/><text x="761.305" y="415.602" stroke="none" clip-path="url(#clipPath2)" font-family="sans-serif" xml:space="preserve">NO</text><path fill="none" d="M564.0129 531 L518 531 L518 342 L556 342" clip-path="url(#clipPath2)"/><path stroke="none" d="M564 342 L552 337 L555 342 L552 347 Z" clip-path="url(#clipPath2)"/><text x="543" y="545.602" stroke="none" clip-path="url(#clipPath2)" font-family="sans-serif" xml:space="preserve">NO</text><path fill="none" d="M647 357 L647 379.0146" clip-path="url(#clipPath2)"/><path stroke="none" d="M647 387.0146 L652 375.0146 L647 378.0146 L642 375.0146 Z" clip-path="url(#clipPath2)"/><path fill="none" d="M349 93 L349 123" clip-path="url(#clipPath2)"/><path stroke="none" d="M349 131 L354 119 L349 122 L344 119 Z" clip-path="url(#clipPath2)"/></g></g></svg>