<?xml version="1.0" encoding="UTF-8"?><svg xmlns="http://www.w3.org/2000/svg" xmlns:xlink="http://www.w3.org/1999/xlink" fill-opacity="1" color-rendering="auto" color-interpolation="auto" text-rendering="auto" stroke="black" stroke-linecap="square" width="391" stroke-miterlimit="10" shape-rendering="auto" stroke-opacity="1" fill="black" stroke-dasharray="none" font-weight="normal" stroke-width="1" height="265" font-family="'Dialog'" font-style="normal" stroke-linejoin="miter" font-size="12px" stroke-dashoffset="0" image-rendering="auto">
  <!--Generated by ySVG 2.5-->
  <defs id="genericDefs"/>
  <g>
    <defs id="defs1">
      <clipPath clipPathUnits="userSpaceOnUse" id="clipPath1">
        <path d="M0 0 L391 0 L391 265 L0 265 L0 0 Z"/>
      </clipPath>
      <clipPath clipPathUnits="userSpaceOnUse" id="clipPath2">
        <path d="M144 16 L535 16 L535 281 L144 281 L144 16 Z"/>
      </clipPath>
    </defs>
    <g fill="rgb(204,255,204)" text-rendering="geometricPrecision" shape-rendering="geometricPrecision" transform="matrix(1,0,0,1,-144,-16)" stroke="rgb(204,255,204)">
      <path d="M266 247 L349 232 L432 247 L349 262 Z" fill-rule="evenodd" clip-path="url(#clipPath2)" stroke="none"/>
    </g>
    <g text-rendering="geometricPrecision" stroke-miterlimit="1.45" shape-rendering="geometricPrecision" transform="matrix(1,0,0,1,-144,-16)" stroke-linecap="butt">
      <path fill="none" d="M266 247 L349 232 L432 247 L349 262 Z" fill-rule="evenodd" clip-path="url(#clipPath2)"/>
      <text x="324.9062" xml:space="preserve" y="251.5352" clip-path="url(#clipPath2)" font-family="sans-serif" stroke="none">descend</text>
    </g>
    <g fill="rgb(255,204,0)" text-rendering="geometricPrecision" shape-rendering="geometricPrecision" transform="matrix(1,0,0,1,-144,-16)" stroke="rgb(255,204,0)">
      <rect x="266" width="166" height="30" y="98" clip-path="url(#clipPath2)" stroke="none"/>
    </g>
    <g text-rendering="geometricPrecision" stroke-miterlimit="1.45" shape-rendering="geometricPrecision" transform="matrix(1,0,0,1,-144,-16)" stroke-linecap="butt">
      <rect fill="none" x="266" width="166" height="30" y="98" clip-path="url(#clipPath2)"/>
      <text x="283.4043" xml:space="preserve" y="117.5352" clip-path="url(#clipPath2)" font-family="sans-serif" stroke="none">read entry from config</text>
    </g>
    <g fill="rgb(255,204,0)" text-rendering="geometricPrecision" shape-rendering="geometricPrecision" transform="matrix(1,0,0,1,-144,-16)" stroke="rgb(255,204,0)">
      <rect x="266" width="166" height="30" y="31" clip-path="url(#clipPath2)" stroke="none"/>
    </g>
    <g text-rendering="geometricPrecision" stroke-miterlimit="1.45" shape-rendering="geometricPrecision" transform="matrix(1,0,0,1,-144,-16)" stroke-linecap="butt">
      <rect fill="none" x="266" width="166" height="30" y="31" clip-path="url(#clipPath2)"/>
      <text x="313.4336" xml:space="preserve" y="50.5352" clip-path="url(#clipPath2)" font-family="sans-serif" stroke="none">Open config</text>
    </g>
    <g fill="rgb(238,238,238)" text-rendering="geometricPrecision" shape-rendering="geometricPrecision" transform="matrix(1,0,0,1,-144,-16)" stroke="rgb(238,238,238)">
      <path d="M266 180 L349 165 L432 180 L349 195 Z" fill-rule="evenodd" clip-path="url(#clipPath2)" stroke="none"/>
    </g>
    <g text-rendering="geometricPrecision" stroke-miterlimit="1.45" shape-rendering="geometricPrecision" transform="matrix(1,0,0,1,-144,-16)" stroke-linecap="butt">
      <path fill="none" d="M266 180 L349 165 L432 180 L349 195 Z" fill-rule="evenodd" clip-path="url(#clipPath2)"/>
      <text x="303.9121" xml:space="preserve" y="184.5352" clip-path="url(#clipPath2)" font-family="sans-serif" stroke="none">is symbolic link</text>
      <path fill="none" d="M266.0142 247 L159 247 L159 113 L258 113" clip-path="url(#clipPath2)"/>
      <path d="M266 113 L254 108 L257 113 L254 118 Z" clip-path="url(#clipPath2)" stroke="none"/>
      <text x="218.0432" xml:space="preserve" y="259.6016" clip-path="url(#clipPath2)" font-family="sans-serif" stroke="none">NO</text>
      <path fill="none" d="M432.0369 247 L520 247 L520 46 L440 46" clip-path="url(#clipPath2)"/>
      <path d="M432 46 L444 51 L441 46 L444 41 Z" clip-path="url(#clipPath2)" stroke="none"/>
      <text x="468.6785" xml:space="preserve" y="260.6016" clip-path="url(#clipPath2)" font-family="sans-serif" stroke="none">YES</text>
      <path fill="none" d="M349 61 L349 90" clip-path="url(#clipPath2)"/>
      <path d="M349 98 L354 86 L349 89 L344 86 Z" clip-path="url(#clipPath2)" stroke="none"/>
      <path fill="none" d="M349 128 L349 156.9941" clip-path="url(#clipPath2)"/>
      <path d="M349 164.9941 L354 152.9941 L349 155.9941 L344 152.9941 Z" clip-path="url(#clipPath2)" stroke="none"/>
      <path fill="none" d="M349 195.0161 L349 223.9988" clip-path="url(#clipPath2)"/>
      <path d="M349 231.9988 L354 219.9988 L349 222.9988 L344 219.9988 Z" clip-path="url(#clipPath2)" stroke="none"/>
      <text x="352" xml:space="preserve" y="218.0352" clip-path="url(#clipPath2)" font-family="sans-serif" stroke="none">NO</text>
      <path fill="none" d="M265.9697 180 L161 180" clip-path="url(#clipPath2)"/>
      <text x="237.7108" xml:space="preserve" y="196.1493" clip-path="url(#clipPath2)" font-family="sans-serif" stroke="none">YES</text>
    </g>
  </g>
</svg>
