<?xml version="1.0" encoding="UTF-8" standalone="no"?>
<!DOCTYPE svg PUBLIC "-//W3C//DTD SVG 1.1//EN"
 "http://www.w3.org/Graphics/SVG/1.1/DTD/svg11.dtd">
<!-- Generated by graphviz version 2.43.0 (0)
 -->
<!-- Title: complete_craft_flow Pages: 1 -->
<svg width="967pt" height="981pt"
 viewBox="0.00 0.00 967.00 981.00" xmlns="http://www.w3.org/2000/svg" xmlns:xlink="http://www.w3.org/1999/xlink">
<g id="graph0" class="graph" transform="scale(1 1) rotate(0) translate(4 977)">
<title>complete_craft_flow</title>
<polygon fill="white" stroke="transparent" points="-4,4 -4,-977 963,-977 963,4 -4,4"/>
<g id="clust1" class="cluster">
<title>cluster_parallel</title>
<polygon fill="none" stroke="#1976d2" stroke-dasharray="5,2" points="8,-794 8,-871 671,-871 671,-794 8,-794"/>
<text text-anchor="middle" x="339.5" y="-855.8" font-family="Times,serif" font-size="14.00">Parallel Code Generation</text>
</g>
<g id="clust2" class="cluster">
<title>cluster_legend</title>
<polygon fill="#f5f5f5" stroke="black" points="679,-720 679,-965 951,-965 951,-720 679,-720"/>
<text text-anchor="middle" x="815" y="-949.8" font-family="Times,serif" font-size="14.00">Legend</text>
</g>
<!-- start -->
<g id="node1" class="node">
<title>start</title>
<ellipse fill="#e1f5ff" stroke="black" cx="319" cy="-916" rx="68.79" ry="18"/>
<text text-anchor="middle" x="319" y="-912.3" font-family="Arial" font-size="14.00">mulle&#45;sde craft</text>
</g>
<!-- to_c -->
<g id="node2" class="node">
<title>to_c</title>
<polygon fill="#64b5f6" stroke="black" points="161.5,-840 16.5,-840 16.5,-836 12.5,-836 12.5,-832 16.5,-832 16.5,-810 12.5,-810 12.5,-806 16.5,-806 16.5,-802 161.5,-802 161.5,-840"/>
<polyline fill="none" stroke="black" points="16.5,-836 20.5,-836 20.5,-832 16.5,-832 "/>
<polyline fill="none" stroke="black" points="16.5,-810 20.5,-810 20.5,-806 16.5,-806 "/>
<text text-anchor="middle" x="89" y="-824.8" font-family="Arial" font-size="14.00">mulle&#45;sourcetree&#45;to&#45;c</text>
<text text-anchor="middle" x="89" y="-809.8" font-family="Arial" font-size="14.00">(for each node)</text>
</g>
<!-- start&#45;&gt;to_c -->
<g id="edge1" class="edge">
<title>start&#45;&gt;to_c</title>
<path fill="none" stroke="black" d="M269.24,-903.52C239.99,-895.97 202.66,-884.9 171,-871 154.9,-863.93 138.08,-854.32 123.89,-845.47"/>
<polygon fill="black" stroke="black" points="125.74,-842.5 115.42,-840.1 121.99,-848.41 125.74,-842.5"/>
</g>
<!-- to_cmake -->
<g id="node3" class="node">
<title>to_cmake</title>
<polygon fill="#64b5f6" stroke="black" points="358.5,-840 179.5,-840 179.5,-836 175.5,-836 175.5,-832 179.5,-832 179.5,-810 175.5,-810 175.5,-806 179.5,-806 179.5,-802 358.5,-802 358.5,-840"/>
<polyline fill="none" stroke="black" points="179.5,-836 183.5,-836 183.5,-832 179.5,-832 "/>
<polyline fill="none" stroke="black" points="179.5,-810 183.5,-810 183.5,-806 179.5,-806 "/>
<text text-anchor="middle" x="269" y="-824.8" font-family="Arial" font-size="14.00">mulle&#45;sourcetree&#45;to&#45;cmake</text>
<text text-anchor="middle" x="269" y="-809.8" font-family="Arial" font-size="14.00">(for each node)</text>
</g>
<!-- start&#45;&gt;to_cmake -->
<g id="edge2" class="edge">
<title>start&#45;&gt;to_cmake</title>
<path fill="none" stroke="black" d="M309.83,-897.94C302.54,-884.39 292.21,-865.18 283.77,-849.47"/>
<polygon fill="black" stroke="black" points="286.61,-847.37 278.8,-840.22 280.45,-850.69 286.61,-847.37"/>
</g>
<!-- craftorder_gen -->
<g id="node4" class="node">
<title>craftorder_gen</title>
<polygon fill="#81c784" stroke="black" points="513.5,-840 376.5,-840 376.5,-836 372.5,-836 372.5,-832 376.5,-832 376.5,-810 372.5,-810 372.5,-806 376.5,-806 376.5,-802 513.5,-802 513.5,-840"/>
<polyline fill="none" stroke="black" points="376.5,-836 380.5,-836 380.5,-832 376.5,-832 "/>
<polyline fill="none" stroke="black" points="376.5,-810 380.5,-810 380.5,-806 376.5,-806 "/>
<text text-anchor="middle" x="445" y="-824.8" font-family="Arial" font-size="14.00">mulle&#45;sde craftorder</text>
<text text-anchor="middle" x="445" y="-809.8" font-family="Arial" font-size="14.00">(topological sort)</text>
</g>
<!-- start&#45;&gt;craftorder_gen -->
<g id="edge3" class="edge">
<title>start&#45;&gt;craftorder_gen</title>
<path fill="none" stroke="black" d="M340.95,-898.8C360.58,-884.31 389.63,-862.87 412.05,-846.32"/>
<polygon fill="black" stroke="black" points="414.32,-849 420.28,-840.24 410.16,-843.36 414.32,-849"/>
</g>
<!-- linkorder_gen -->
<g id="node5" class="node">
<title>linkorder_gen</title>
<polygon fill="#81c784" stroke="black" points="662.5,-840 531.5,-840 531.5,-836 527.5,-836 527.5,-832 531.5,-832 531.5,-810 527.5,-810 527.5,-806 531.5,-806 531.5,-802 662.5,-802 662.5,-840"/>
<polyline fill="none" stroke="black" points="531.5,-836 535.5,-836 535.5,-832 531.5,-832 "/>
<polyline fill="none" stroke="black" points="531.5,-810 535.5,-810 535.5,-806 531.5,-806 "/>
<text text-anchor="middle" x="597" y="-824.8" font-family="Arial" font-size="14.00">mulle&#45;sde linkorder</text>
<text text-anchor="middle" x="597" y="-809.8" font-family="Arial" font-size="14.00">(reverse topo sort)</text>
</g>
<!-- start&#45;&gt;linkorder_gen -->
<g id="edge4" class="edge">
<title>start&#45;&gt;linkorder_gen</title>
<path fill="none" stroke="black" d="M380.61,-907.81C422.05,-901.51 477.26,-890.27 523,-871 538.11,-864.63 553.45,-855.09 566.22,-846.11"/>
<polygon fill="black" stroke="black" points="568.56,-848.74 574.61,-840.03 564.45,-843.07 568.56,-848.74"/>
</g>
<!-- headers -->
<g id="node6" class="node">
<title>headers</title>
<polygon fill="#c8e6c9" stroke="black" points="137.5,-765 20.5,-765 20.5,-727 143.5,-727 143.5,-759 137.5,-765"/>
<polyline fill="none" stroke="black" points="137.5,-765 137.5,-759 "/>
<polyline fill="none" stroke="black" points="143.5,-759 137.5,-759 "/>
<text text-anchor="middle" x="82" y="-749.8" font-family="Arial" font-size="14.00">_include.h</text>
<text text-anchor="middle" x="82" y="-734.8" font-family="Arial" font-size="14.00">_include&#45;private.h</text>
</g>
<!-- to_c&#45;&gt;headers -->
<g id="edge5" class="edge">
<title>to_c&#45;&gt;headers</title>
<path fill="none" stroke="black" d="M87.27,-801.96C86.5,-793.88 85.56,-784.18 84.7,-775.18"/>
<polygon fill="black" stroke="black" points="88.17,-774.71 83.73,-765.09 81.21,-775.38 88.17,-774.71"/>
</g>
<!-- cmake_files -->
<g id="node7" class="node">
<title>cmake_files</title>
<polygon fill="#c8e6c9" stroke="black" points="378.5,-765 161.5,-765 161.5,-727 384.5,-727 384.5,-759 378.5,-765"/>
<polyline fill="none" stroke="black" points="378.5,-765 378.5,-759 "/>
<polyline fill="none" stroke="black" points="384.5,-759 378.5,-759 "/>
<text text-anchor="middle" x="273" y="-749.8" font-family="Arial" font-size="14.00">Dependencies.cmake</text>
<text text-anchor="middle" x="273" y="-734.8" font-family="Arial" font-size="14.00">DependenciesAndLibraries.cmake</text>
</g>
<!-- to_cmake&#45;&gt;cmake_files -->
<g id="edge6" class="edge">
<title>to_cmake&#45;&gt;cmake_files</title>
<path fill="none" stroke="black" d="M269.99,-801.96C270.43,-793.88 270.96,-784.18 271.46,-775.18"/>
<polygon fill="black" stroke="black" points="274.96,-775.27 272.01,-765.09 267.97,-774.88 274.96,-775.27"/>
</g>
<!-- craftorder_list -->
<g id="node8" class="node">
<title>craftorder_list</title>
<polygon fill="#c8e6c9" stroke="black" points="507,-765 403,-765 403,-727 513,-727 513,-759 507,-765"/>
<polyline fill="none" stroke="black" points="507,-765 507,-759 "/>
<polyline fill="none" stroke="black" points="513,-759 507,-759 "/>
<text text-anchor="middle" x="458" y="-749.8" font-family="Arial" font-size="14.00">craftorder</text>
<text text-anchor="middle" x="458" y="-734.8" font-family="Arial" font-size="14.00">(build order list)</text>
</g>
<!-- craftorder_gen&#45;&gt;craftorder_list -->
<g id="edge7" class="edge">
<title>craftorder_gen&#45;&gt;craftorder_list</title>
<path fill="none" stroke="black" d="M448.21,-801.96C449.65,-793.88 451.38,-784.18 452.98,-775.18"/>
<polygon fill="black" stroke="black" points="456.47,-775.55 454.78,-765.09 449.58,-774.32 456.47,-775.55"/>
</g>
<!-- linkorder_list -->
<g id="node9" class="node">
<title>linkorder_list</title>
<polygon fill="#c8e6c9" stroke="black" points="635.5,-765 540.5,-765 540.5,-727 641.5,-727 641.5,-759 635.5,-765"/>
<polyline fill="none" stroke="black" points="635.5,-765 635.5,-759 "/>
<polyline fill="none" stroke="black" points="641.5,-759 635.5,-759 "/>
<text text-anchor="middle" x="591" y="-749.8" font-family="Arial" font-size="14.00">linkorder</text>
<text text-anchor="middle" x="591" y="-734.8" font-family="Arial" font-size="14.00">(link order list)</text>
</g>
<!-- linkorder_gen&#45;&gt;linkorder_list -->
<g id="edge8" class="edge">
<title>linkorder_gen&#45;&gt;linkorder_list</title>
<path fill="none" stroke="black" d="M595.52,-801.96C594.85,-793.88 594.06,-784.18 593.32,-775.18"/>
<polygon fill="black" stroke="black" points="596.79,-774.77 592.49,-765.09 589.82,-775.34 596.79,-774.77"/>
</g>
<!-- build_loop -->
<g id="node10" class="node">
<title>build_loop</title>
<polygon fill="#b3e5fc" stroke="black" points="350.5,-680 203.5,-680 203.5,-642 350.5,-642 350.5,-680"/>
<text text-anchor="middle" x="277" y="-664.8" font-family="Arial" font-size="14.00">For each dependency</text>
<text text-anchor="middle" x="277" y="-649.8" font-family="Arial" font-size="14.00">in craftorder:</text>
</g>
<!-- headers&#45;&gt;build_loop -->
<g id="edge9" class="edge">
<title>headers&#45;&gt;build_loop</title>
<path fill="none" stroke="black" stroke-dasharray="5,2" d="M124.31,-726.99C153.85,-714.42 193.47,-697.55 224.95,-684.16"/>
<polygon fill="black" stroke="black" points="226.6,-687.25 234.43,-680.12 223.86,-680.81 226.6,-687.25"/>
<text text-anchor="middle" x="214" y="-701" font-family="Arial" font-size="10.00">referenced</text>
</g>
<!-- cmake_files&#45;&gt;build_loop -->
<g id="edge10" class="edge">
<title>cmake_files&#45;&gt;build_loop</title>
<path fill="none" stroke="black" stroke-dasharray="5,2" d="M273.87,-726.99C274.38,-716.3 275.05,-702.5 275.63,-690.37"/>
<polygon fill="black" stroke="black" points="279.13,-690.42 276.12,-680.26 272.14,-690.08 279.13,-690.42"/>
<text text-anchor="middle" x="298" y="-701" font-family="Arial" font-size="10.00">referenced</text>
</g>
<!-- craftorder_list&#45;&gt;build_loop -->
<g id="edge11" class="edge">
<title>craftorder_list&#45;&gt;build_loop</title>
<path fill="none" stroke="black" d="M418.73,-726.99C391.42,-714.47 354.85,-697.7 325.69,-684.33"/>
<polygon fill="black" stroke="black" points="327.06,-681.1 316.51,-680.12 324.14,-687.47 327.06,-681.1"/>
</g>
<!-- main_cmake -->
<g id="node16" class="node">
<title>main_cmake</title>
<polygon fill="#b3e5fc" stroke="black" points="586.5,-186 433.5,-186 433.5,-148 586.5,-148 586.5,-186"/>
<text text-anchor="middle" x="510" y="-170.8" font-family="Arial" font-size="14.00">Configure main project</text>
<text text-anchor="middle" x="510" y="-155.8" font-family="Arial" font-size="14.00">(include cmake files)</text>
</g>
<!-- linkorder_list&#45;&gt;main_cmake -->
<g id="edge12" class="edge">
<title>linkorder_list&#45;&gt;main_cmake</title>
<path fill="none" stroke="black" stroke-dasharray="5,2" d="M590.31,-726.87C589.73,-710.06 589,-684.34 589,-662 589,-662 589,-662 589,-261 589,-232.95 567.86,-209.03 547.45,-192.48"/>
<polygon fill="black" stroke="black" points="549.47,-189.62 539.42,-186.29 545.2,-195.16 549.47,-189.62"/>
<text text-anchor="middle" x="612" y="-451" font-family="Arial" font-size="10.00">referenced</text>
</g>
<!-- craft -->
<g id="node11" class="node">
<title>craft</title>
<polygon fill="#ffb74d" stroke="black" points="377.5,-605 248.5,-605 248.5,-601 244.5,-601 244.5,-597 248.5,-597 248.5,-560 244.5,-560 244.5,-556 248.5,-556 248.5,-552 377.5,-552 377.5,-605"/>
<polyline fill="none" stroke="black" points="248.5,-601 252.5,-601 252.5,-597 248.5,-597 "/>
<polyline fill="none" stroke="black" points="248.5,-560 252.5,-560 252.5,-556 248.5,-556 "/>
<text text-anchor="middle" x="313" y="-589.8" font-family="Arial" font-size="14.00">mulle&#45;craft</text>
<text text-anchor="middle" x="313" y="-574.8" font-family="Arial" font-size="14.00">(check marks,</text>
<text text-anchor="middle" x="313" y="-559.8" font-family="Arial" font-size="14.00">determine options)</text>
</g>
<!-- build_loop&#45;&gt;craft -->
<g id="edge13" class="edge">
<title>build_loop&#45;&gt;craft</title>
<path fill="none" stroke="black" d="M285.17,-641.73C288.81,-633.59 293.22,-623.72 297.46,-614.26"/>
<polygon fill="black" stroke="black" points="300.7,-615.57 301.59,-605.02 294.31,-612.72 300.7,-615.57"/>
</g>
<!-- make -->
<g id="node12" class="node">
<title>make</title>
<polygon fill="#ffcc80" stroke="black" points="396.5,-515 229.5,-515 229.5,-511 225.5,-511 225.5,-507 229.5,-507 229.5,-485 225.5,-485 225.5,-481 229.5,-481 229.5,-477 396.5,-477 396.5,-515"/>
<polyline fill="none" stroke="black" points="229.5,-511 233.5,-511 233.5,-507 229.5,-507 "/>
<polyline fill="none" stroke="black" points="229.5,-485 233.5,-485 233.5,-481 229.5,-481 "/>
<text text-anchor="middle" x="313" y="-499.8" font-family="Arial" font-size="14.00">mulle&#45;make</text>
<text text-anchor="middle" x="313" y="-484.8" font-family="Arial" font-size="14.00">(cmake/ninja/xcodebuild)</text>
</g>
<!-- craft&#45;&gt;make -->
<g id="edge14" class="edge">
<title>craft&#45;&gt;make</title>
<path fill="none" stroke="black" d="M313,-551.59C313,-543.31 313,-534.11 313,-525.65"/>
<polygon fill="black" stroke="black" points="316.5,-525.47 313,-515.47 309.5,-525.47 316.5,-525.47"/>
</g>
<!-- dispense -->
<g id="node13" class="node">
<title>dispense</title>
<polygon fill="#ffe0b2" stroke="black" points="386.5,-430 249.5,-430 249.5,-426 245.5,-426 245.5,-422 249.5,-422 249.5,-400 245.5,-400 245.5,-396 249.5,-396 249.5,-392 386.5,-392 386.5,-430"/>
<polyline fill="none" stroke="black" points="249.5,-426 253.5,-426 253.5,-422 249.5,-422 "/>
<polyline fill="none" stroke="black" points="249.5,-400 253.5,-400 253.5,-396 249.5,-396 "/>
<text text-anchor="middle" x="318" y="-414.8" font-family="Arial" font-size="14.00">mulle&#45;dispense</text>
<text text-anchor="middle" x="318" y="-399.8" font-family="Arial" font-size="14.00">(install headers/libs)</text>
</g>
<!-- make&#45;&gt;dispense -->
<g id="edge15" class="edge">
<title>make&#45;&gt;dispense</title>
<path fill="none" stroke="black" d="M314.08,-476.99C314.73,-466.3 315.56,-452.5 316.29,-440.37"/>
<polygon fill="black" stroke="black" points="319.79,-440.45 316.9,-430.26 312.8,-440.03 319.79,-440.45"/>
</g>
<!-- dependency_dir -->
<g id="node14" class="node">
<title>dependency_dir</title>
<polygon fill="#c8e6c9" stroke="black" points="382.5,-355 379.5,-359 358.5,-359 355.5,-355 281.5,-355 281.5,-317 382.5,-317 382.5,-355"/>
<text text-anchor="middle" x="332" y="-339.8" font-family="Arial" font-size="14.00">dependency/</text>
<text text-anchor="middle" x="332" y="-324.8" font-family="Arial" font-size="14.00">(built libraries)</text>
</g>
<!-- dispense&#45;&gt;dependency_dir -->
<g id="edge16" class="edge">
<title>dispense&#45;&gt;dependency_dir</title>
<path fill="none" stroke="black" d="M321.46,-391.96C323.01,-383.88 324.87,-374.18 326.6,-365.18"/>
<polygon fill="black" stroke="black" points="330.08,-365.57 328.53,-355.09 323.21,-364.25 330.08,-365.57"/>
</g>
<!-- next_dep -->
<g id="node15" class="node">
<title>next_dep</title>
<polygon fill="#fff9c4" stroke="black" points="424,-280 292.62,-262 424,-244 555.38,-262 424,-280"/>
<text text-anchor="middle" x="424" y="-258.3" font-family="Arial" font-size="14.00">More dependencies?</text>
</g>
<!-- dependency_dir&#45;&gt;next_dep -->
<g id="edge17" class="edge">
<title>dependency_dir&#45;&gt;next_dep</title>
<path fill="none" stroke="black" d="M355.22,-316.83C368.09,-306.76 384.14,-294.19 397.51,-283.74"/>
<polygon fill="black" stroke="black" points="399.71,-286.46 405.42,-277.54 395.39,-280.94 399.71,-286.46"/>
</g>
<!-- next_dep&#45;&gt;craft -->
<g id="edge18" class="edge">
<title>next_dep&#45;&gt;craft</title>
<path fill="none" stroke="black" d="M424,-280.17C424,-294.75 424,-316.25 424,-335 424,-497 424,-497 424,-497 424,-520.75 407.15,-538.21 386.58,-550.68"/>
<polygon fill="black" stroke="black" points="384.58,-547.78 377.57,-555.72 388,-553.89 384.58,-547.78"/>
<text text-anchor="middle" x="450" y="-414" font-family="Arial" font-size="10.00">yes</text>
<text text-anchor="middle" x="450" y="-403" font-family="Arial" font-size="10.00">(next in list)</text>
</g>
<!-- next_dep&#45;&gt;main_cmake -->
<g id="edge19" class="edge">
<title>next_dep&#45;&gt;main_cmake</title>
<path fill="none" stroke="black" d="M438.2,-245.64C451.16,-231.63 470.57,-210.64 485.94,-194.02"/>
<polygon fill="black" stroke="black" points="488.9,-195.97 493.12,-186.26 483.76,-191.22 488.9,-195.97"/>
<text text-anchor="middle" x="492.5" y="-218" font-family="Arial" font-size="10.00">no</text>
<text text-anchor="middle" x="492.5" y="-207" font-family="Arial" font-size="10.00">(all built)</text>
</g>
<!-- main_build -->
<g id="node17" class="node">
<title>main_build</title>
<polygon fill="#64b5f6" stroke="black" points="590.5,-111 429.5,-111 429.5,-73 590.5,-73 590.5,-111"/>
<text text-anchor="middle" x="510" y="-95.8" font-family="Arial" font-size="14.00">Build main project</text>
<text text-anchor="middle" x="510" y="-80.8" font-family="Arial" font-size="14.00">(link with dependencies)</text>
</g>
<!-- main_cmake&#45;&gt;main_build -->
<g id="edge20" class="edge">
<title>main_cmake&#45;&gt;main_build</title>
<path fill="none" stroke="black" d="M510,-147.96C510,-139.88 510,-130.18 510,-121.18"/>
<polygon fill="black" stroke="black" points="513.5,-121.09 510,-111.09 506.5,-121.09 513.5,-121.09"/>
</g>
<!-- done -->
<g id="node18" class="node">
<title>done</title>
<ellipse fill="#c8e6c9" stroke="black" cx="510" cy="-18" rx="68.79" ry="18"/>
<text text-anchor="middle" x="510" y="-14.3" font-family="Arial" font-size="14.00">Build complete</text>
</g>
<!-- main_build&#45;&gt;done -->
<g id="edge21" class="edge">
<title>main_build&#45;&gt;done</title>
<path fill="none" stroke="black" d="M510,-72.83C510,-64.89 510,-55.41 510,-46.63"/>
<polygon fill="black" stroke="black" points="513.5,-46.42 510,-36.42 506.5,-46.42 513.5,-46.42"/>
</g>
<!-- leg_component -->
<g id="node19" class="node">
<title>leg_component</title>
<polygon fill="#64b5f6" stroke="black" points="943,-934 849,-934 849,-930 845,-930 845,-926 849,-926 849,-906 845,-906 845,-902 849,-902 849,-898 943,-898 943,-934"/>
<polyline fill="none" stroke="black" points="849,-930 853,-930 853,-926 849,-926 "/>
<polyline fill="none" stroke="black" points="849,-906 853,-906 853,-902 849,-902 "/>
<text text-anchor="middle" x="896" y="-912.3" font-family="Arial" font-size="14.00">Tool/Process</text>
</g>
<!-- leg_output -->
<g id="node20" class="node">
<title>leg_output</title>
<polygon fill="#c8e6c9" stroke="black" points="937.5,-839 836.5,-839 836.5,-803 943.5,-803 943.5,-833 937.5,-839"/>
<polyline fill="none" stroke="black" points="937.5,-839 937.5,-833 "/>
<polyline fill="none" stroke="black" points="943.5,-833 937.5,-833 "/>
<text text-anchor="middle" x="890" y="-817.3" font-family="Arial" font-size="14.00">Generated File</text>
</g>
<!-- leg_component&#45;&gt;leg_output -->
<!-- leg_decision -->
<g id="node21" class="node">
<title>leg_decision</title>
<polygon fill="#fff9c4" stroke="black" points="880,-764 817.49,-746 880,-728 942.51,-746 880,-764"/>
<text text-anchor="middle" x="880" y="-742.3" font-family="Arial" font-size="14.00">Decision</text>
</g>
<!-- leg_output&#45;&gt;leg_decision -->
<!-- leg_solid -->
<g id="node22" class="node">
<title>leg_solid</title>
<path fill="none" stroke="black" d="M818.5,-934C818.5,-934 699.5,-934 699.5,-934 693.5,-934 687.5,-928 687.5,-922 687.5,-922 687.5,-910 687.5,-910 687.5,-904 693.5,-898 699.5,-898 699.5,-898 818.5,-898 818.5,-898 824.5,-898 830.5,-904 830.5,-910 830.5,-910 830.5,-922 830.5,-922 830.5,-928 824.5,-934 818.5,-934"/>
<text text-anchor="middle" x="759" y="-912.3" font-family="Arial" font-size="14.00">Data flow / Execution</text>
</g>
<!-- leg_dashed -->
<g id="node23" class="node">
<title>leg_dashed</title>
<polygon fill="none" stroke="black" stroke-dasharray="5,2" points="818.5,-839 689.5,-839 689.5,-803 818.5,-803 818.5,-839"/>
<text text-anchor="middle" x="754" y="-817.3" font-family="Arial" font-size="14.00">Referenced / Used</text>
</g>
<!-- leg_solid&#45;&gt;leg_dashed -->
</g>
</svg>
