<?xml version="1.0" encoding="UTF-8" standalone="no"?>
<!DOCTYPE svg PUBLIC "-//W3C//DTD SVG 1.1//EN"
 "http://www.w3.org/Graphics/SVG/1.1/DTD/svg11.dtd">
<!-- Generated by graphviz version 2.43.0 (0)
 -->
<!-- Title: mulle_sde_craft_pipeline Pages: 1 -->
<svg width="1212pt" height="813pt"
 viewBox="0.00 0.00 1212.00 813.00" xmlns="http://www.w3.org/2000/svg" xmlns:xlink="http://www.w3.org/1999/xlink">
<g id="graph0" class="graph" transform="scale(1 1) rotate(0) translate(4 809)">
<title>mulle_sde_craft_pipeline</title>
<polygon fill="white" stroke="transparent" points="-4,4 -4,-809 1208,-809 1208,4 -4,4"/>
<g id="clust3" class="cluster">
<title>cluster_builder</title>
<polygon fill="none" stroke="#f57c00" stroke-dasharray="5,2" points="787,-359 787,-438 1072,-438 1072,-359 787,-359"/>
<text text-anchor="middle" x="929.5" y="-422.8" font-family="Times,serif" font-size="14.00">Build System</text>
</g>
<g id="clust9" class="cluster">
<title>cluster_legend</title>
<polygon fill="#f5f5f5" stroke="black" points="19,-664 19,-797 536.5,-797 536.5,-664 19,-664"/>
<text text-anchor="middle" x="277.75" y="-781.8" font-family="Times,serif" font-size="14.00">Legend</text>
</g>
<!-- sourcetree -->
<g id="node1" class="node">
<title>sourcetree</title>
<polygon fill="#e1f5ff" stroke="black" points="131,-369.5 128,-373.5 107,-373.5 104,-369.5 0,-369.5 0,-316.5 131,-316.5 131,-369.5"/>
<text text-anchor="middle" x="65.5" y="-354.3" font-family="Arial" font-size="14.00">mulle&#45;sourcetree</text>
<text text-anchor="middle" x="65.5" y="-339.3" font-family="Arial" font-size="14.00">config</text>
<text text-anchor="middle" x="65.5" y="-324.3" font-family="Arial" font-size="14.00">(nodes with marks)</text>
</g>
<!-- to_c -->
<g id="node2" class="node">
<title>to_c</title>
<polygon fill="#64b5f6" stroke="black" points="356,-654 211,-654 211,-650 207,-650 207,-646 211,-646 211,-626 207,-626 207,-622 211,-622 211,-618 356,-618 356,-654"/>
<polyline fill="none" stroke="black" points="211,-650 215,-650 215,-646 211,-646 "/>
<polyline fill="none" stroke="black" points="211,-626 215,-626 215,-622 211,-622 "/>
<text text-anchor="middle" x="283.5" y="-632.3" font-family="Arial" font-size="14.00">mulle&#45;sourcetree&#45;to&#45;c</text>
</g>
<!-- sourcetree&#45;&gt;to_c -->
<g id="edge1" class="edge">
<title>sourcetree&#45;&gt;to_c</title>
<path fill="none" stroke="black" d="M74.19,-369.84C89.55,-419.27 128.3,-525.59 194,-591 202.68,-599.65 213.37,-606.96 224.28,-613.02"/>
<polygon fill="black" stroke="black" points="222.97,-616.28 233.45,-617.81 226.21,-610.08 222.97,-616.28"/>
<text text-anchor="middle" x="162.5" y="-571" font-family="Arial" font-size="10.00">nodes</text>
</g>
<!-- to_cmake -->
<g id="node3" class="node">
<title>to_cmake</title>
<polygon fill="#64b5f6" stroke="black" points="373,-486 194,-486 194,-482 190,-482 190,-478 194,-478 194,-458 190,-458 190,-454 194,-454 194,-450 373,-450 373,-486"/>
<polyline fill="none" stroke="black" points="194,-482 198,-482 198,-478 194,-478 "/>
<polyline fill="none" stroke="black" points="194,-458 198,-458 198,-454 194,-454 "/>
<text text-anchor="middle" x="283.5" y="-464.3" font-family="Arial" font-size="14.00">mulle&#45;sourcetree&#45;to&#45;cmake</text>
</g>
<!-- sourcetree&#45;&gt;to_cmake -->
<g id="edge2" class="edge">
<title>sourcetree&#45;&gt;to_cmake</title>
<path fill="none" stroke="black" d="M106.7,-369.53C131.53,-385.57 164.21,-406.13 194,-423 207.4,-430.59 222.24,-438.37 235.86,-445.27"/>
<polygon fill="black" stroke="black" points="234.57,-448.54 245.08,-449.9 237.71,-442.29 234.57,-448.54"/>
<text text-anchor="middle" x="162.5" y="-413" font-family="Arial" font-size="10.00">nodes</text>
</g>
<!-- craftorder -->
<g id="node4" class="node">
<title>craftorder</title>
<polygon fill="#81c784" stroke="black" points="352,-308 215,-308 215,-304 211,-304 211,-300 215,-300 215,-280 211,-280 211,-276 215,-276 215,-272 352,-272 352,-308"/>
<polyline fill="none" stroke="black" points="215,-304 219,-304 219,-300 215,-300 "/>
<polyline fill="none" stroke="black" points="215,-280 219,-280 219,-276 215,-276 "/>
<text text-anchor="middle" x="283.5" y="-286.3" font-family="Arial" font-size="14.00">mulle&#45;sde craftorder</text>
</g>
<!-- sourcetree&#45;&gt;craftorder -->
<g id="edge3" class="edge">
<title>sourcetree&#45;&gt;craftorder</title>
<path fill="none" stroke="black" d="M131.01,-327.17C154.29,-321.46 180.79,-314.96 205.06,-309"/>
<polygon fill="black" stroke="black" points="206.07,-312.36 214.94,-306.58 204.4,-305.56 206.07,-312.36"/>
<text text-anchor="middle" x="162.5" y="-324" font-family="Arial" font-size="10.00">nodes</text>
</g>
<!-- linkorder -->
<g id="node5" class="node">
<title>linkorder</title>
<polygon fill="#81c784" stroke="black" points="349,-140 218,-140 218,-136 214,-136 214,-132 218,-132 218,-112 214,-112 214,-108 218,-108 218,-104 349,-104 349,-140"/>
<polyline fill="none" stroke="black" points="218,-136 222,-136 222,-132 218,-132 "/>
<polyline fill="none" stroke="black" points="218,-112 222,-112 222,-108 218,-108 "/>
<text text-anchor="middle" x="283.5" y="-118.3" font-family="Arial" font-size="14.00">mulle&#45;sde linkorder</text>
</g>
<!-- sourcetree&#45;&gt;linkorder -->
<g id="edge4" class="edge">
<title>sourcetree&#45;&gt;linkorder</title>
<path fill="none" stroke="black" d="M76.85,-316.48C94.53,-274.66 134.48,-193.57 194,-149 198.42,-145.69 203.25,-142.78 208.3,-140.23"/>
<polygon fill="black" stroke="black" points="209.93,-143.33 217.58,-136 207.03,-136.96 209.93,-143.33"/>
<text text-anchor="middle" x="162.5" y="-195" font-family="Arial" font-size="10.00">nodes</text>
</g>
<!-- headers -->
<g id="node9" class="node">
<title>headers</title>
<polygon fill="#c8e6c9" stroke="black" points="525.5,-616.5 444.5,-616.5 444.5,-563.5 531.5,-563.5 531.5,-610.5 525.5,-616.5"/>
<polyline fill="none" stroke="black" points="525.5,-616.5 525.5,-610.5 "/>
<polyline fill="none" stroke="black" points="531.5,-610.5 525.5,-610.5 "/>
<text text-anchor="middle" x="488" y="-601.3" font-family="Arial" font-size="14.00">Generated</text>
<text text-anchor="middle" x="488" y="-586.3" font-family="Arial" font-size="14.00">Headers</text>
<text text-anchor="middle" x="488" y="-571.3" font-family="Arial" font-size="14.00">(_include.h)</text>
</g>
<!-- to_c&#45;&gt;headers -->
<g id="edge5" class="edge">
<title>to_c&#45;&gt;headers</title>
<path fill="none" stroke="black" d="M356.18,-619.72C381.96,-613.86 410.55,-607.37 434.41,-601.95"/>
<polygon fill="black" stroke="black" points="435.35,-605.32 444.33,-599.69 433.8,-598.5 435.35,-605.32"/>
</g>
<!-- marks_to_c -->
<g id="node14" class="node">
<title>marks_to_c</title>
<text text-anchor="middle" x="283.5" y="-570.8" font-family="Arial" font-size="9.00">Marks used:</text>
<text text-anchor="middle" x="283.5" y="-560.8" font-family="Arial" font-size="9.00">no&#45;header</text>
<text text-anchor="middle" x="283.5" y="-550.8" font-family="Arial" font-size="9.00">no&#45;import</text>
<text text-anchor="middle" x="283.5" y="-540.8" font-family="Arial" font-size="9.00">no&#45;public</text>
<text text-anchor="middle" x="283.5" y="-530.8" font-family="Arial" font-size="9.00">no&#45;platform&#45;*</text>
<text text-anchor="middle" x="283.5" y="-520.8" font-family="Arial" font-size="9.00">no&#45;sdk&#45;*</text>
<text text-anchor="middle" x="283.5" y="-510.8" font-family="Arial" font-size="9.00">require</text>
</g>
<!-- to_c&#45;&gt;marks_to_c -->
<!-- cmake_deps -->
<g id="node10" class="node">
<title>cmake_deps</title>
<polygon fill="#c8e6c9" stroke="black" points="560,-472.5 410,-472.5 410,-419.5 566,-419.5 566,-466.5 560,-472.5"/>
<polyline fill="none" stroke="black" points="560,-472.5 560,-466.5 "/>
<polyline fill="none" stroke="black" points="566,-466.5 560,-466.5 "/>
<text text-anchor="middle" x="488" y="-457.3" font-family="Arial" font-size="14.00">Generated</text>
<text text-anchor="middle" x="488" y="-442.3" font-family="Arial" font-size="14.00">CMake Files</text>
<text text-anchor="middle" x="488" y="-427.3" font-family="Arial" font-size="14.00">(Dependencies.cmake)</text>
</g>
<!-- to_cmake&#45;&gt;cmake_deps -->
<g id="edge6" class="edge">
<title>to_cmake&#45;&gt;cmake_deps</title>
<path fill="none" stroke="black" d="M373.02,-458.38C381.92,-457.42 390.94,-456.44 399.82,-455.47"/>
<polygon fill="black" stroke="black" points="400.2,-458.95 409.77,-454.39 399.45,-451.99 400.2,-458.95"/>
</g>
<!-- marks_to_cmake -->
<g id="node15" class="node">
<title>marks_to_cmake</title>
<text text-anchor="middle" x="283.5" y="-402.8" font-family="Arial" font-size="9.00">Marks used:</text>
<text text-anchor="middle" x="283.5" y="-392.8" font-family="Arial" font-size="9.00">no&#45;cmake&#45;add</text>
<text text-anchor="middle" x="283.5" y="-382.8" font-family="Arial" font-size="9.00">no&#45;cmake&#45;inherit</text>
<text text-anchor="middle" x="283.5" y="-372.8" font-family="Arial" font-size="9.00">no&#45;all&#45;load</text>
<text text-anchor="middle" x="283.5" y="-362.8" font-family="Arial" font-size="9.00">no&#45;dynamic&#45;link</text>
<text text-anchor="middle" x="283.5" y="-352.8" font-family="Arial" font-size="9.00">no&#45;static&#45;link</text>
<text text-anchor="middle" x="283.5" y="-342.8" font-family="Arial" font-size="9.00">only&#45;framework</text>
<text text-anchor="middle" x="283.5" y="-332.8" font-family="Arial" font-size="9.00">require&#45;link</text>
</g>
<!-- to_cmake&#45;&gt;marks_to_cmake -->
<!-- craft_list -->
<g id="node11" class="node">
<title>craft_list</title>
<polygon fill="#c8e6c9" stroke="black" points="525,-344 445,-344 445,-306 531,-306 531,-338 525,-344"/>
<polyline fill="none" stroke="black" points="525,-344 525,-338 "/>
<polyline fill="none" stroke="black" points="531,-338 525,-338 "/>
<text text-anchor="middle" x="488" y="-328.8" font-family="Arial" font-size="14.00">Build Order</text>
<text text-anchor="middle" x="488" y="-313.8" font-family="Arial" font-size="14.00">List</text>
</g>
<!-- craftorder&#45;&gt;craft_list -->
<g id="edge7" class="edge">
<title>craftorder&#45;&gt;craft_list</title>
<path fill="none" stroke="black" d="M352.21,-301.7C379.09,-306.35 409.53,-311.61 434.67,-315.95"/>
<polygon fill="black" stroke="black" points="434.28,-319.44 444.73,-317.69 435.48,-312.54 434.28,-319.44"/>
</g>
<!-- marks_craftorder -->
<g id="node16" class="node">
<title>marks_craftorder</title>
<text text-anchor="middle" x="283.5" y="-224.8" font-family="Arial" font-size="9.00">Marks used:</text>
<text text-anchor="middle" x="283.5" y="-214.8" font-family="Arial" font-size="9.00">no&#45;build</text>
<text text-anchor="middle" x="283.5" y="-204.8" font-family="Arial" font-size="9.00">no&#45;craft&#45;os&#45;*</text>
<text text-anchor="middle" x="283.5" y="-194.8" font-family="Arial" font-size="9.00">no&#45;craft&#45;platform&#45;*</text>
<text text-anchor="middle" x="283.5" y="-184.8" font-family="Arial" font-size="9.00">no&#45;craft&#45;sdk&#45;*</text>
<text text-anchor="middle" x="283.5" y="-174.8" font-family="Arial" font-size="9.00">no&#45;dependency</text>
<text text-anchor="middle" x="283.5" y="-164.8" font-family="Arial" font-size="9.00">no&#45;require&#45;*</text>
</g>
<!-- craftorder&#45;&gt;marks_craftorder -->
<!-- link_list -->
<g id="node12" class="node">
<title>link_list</title>
<polygon fill="#c8e6c9" stroke="black" points="522,-260 448,-260 448,-222 528,-222 528,-254 522,-260"/>
<polyline fill="none" stroke="black" points="522,-260 522,-254 "/>
<polyline fill="none" stroke="black" points="528,-254 522,-254 "/>
<text text-anchor="middle" x="488" y="-244.8" font-family="Arial" font-size="14.00">Link Order</text>
<text text-anchor="middle" x="488" y="-229.8" font-family="Arial" font-size="14.00">List</text>
</g>
<!-- linkorder&#45;&gt;link_list -->
<g id="edge8" class="edge">
<title>linkorder&#45;&gt;link_list</title>
<path fill="none" stroke="black" d="M349,-138.48C357.28,-141.52 365.48,-145.01 373,-149 406.16,-166.59 438.98,-194.48 460.83,-214.94"/>
<polygon fill="black" stroke="black" points="458.42,-217.48 468.08,-221.84 463.25,-212.41 458.42,-217.48"/>
</g>
<!-- marks_linkorder -->
<g id="node17" class="node">
<title>marks_linkorder</title>
<text text-anchor="middle" x="283.5" y="-56.8" font-family="Arial" font-size="9.00">Marks used:</text>
<text text-anchor="middle" x="283.5" y="-46.8" font-family="Arial" font-size="9.00">no&#45;link</text>
<text text-anchor="middle" x="283.5" y="-36.8" font-family="Arial" font-size="9.00">no&#45;all&#45;load</text>
<text text-anchor="middle" x="283.5" y="-26.8" font-family="Arial" font-size="9.00">no&#45;intermediate&#45;link</text>
<text text-anchor="middle" x="283.5" y="-16.8" font-family="Arial" font-size="9.00">no&#45;cmake&#45;add</text>
<text text-anchor="middle" x="283.5" y="-6.8" font-family="Arial" font-size="9.00">no&#45;actual&#45;link</text>
</g>
<!-- linkorder&#45;&gt;marks_linkorder -->
<!-- craft -->
<g id="node6" class="node">
<title>craft</title>
<polygon fill="#ffb74d" stroke="black" points="736.5,-403 656.5,-403 656.5,-399 652.5,-399 652.5,-395 656.5,-395 656.5,-375 652.5,-375 652.5,-371 656.5,-371 656.5,-367 736.5,-367 736.5,-403"/>
<polyline fill="none" stroke="black" points="656.5,-399 660.5,-399 660.5,-395 656.5,-395 "/>
<polyline fill="none" stroke="black" points="656.5,-375 660.5,-375 660.5,-371 656.5,-371 "/>
<text text-anchor="middle" x="696.5" y="-381.3" font-family="Arial" font-size="14.00">mulle&#45;craft</text>
</g>
<!-- make -->
<g id="node7" class="node">
<title>make</title>
<polygon fill="#ffcc80" stroke="black" points="883,-403 795,-403 795,-399 791,-399 791,-395 795,-395 795,-375 791,-375 791,-371 795,-371 795,-367 883,-367 883,-403"/>
<polyline fill="none" stroke="black" points="795,-399 799,-399 799,-395 795,-395 "/>
<polyline fill="none" stroke="black" points="795,-375 799,-375 799,-371 795,-371 "/>
<text text-anchor="middle" x="839" y="-381.3" font-family="Arial" font-size="14.00">mulle&#45;make</text>
</g>
<!-- craft&#45;&gt;make -->
<g id="edge10" class="edge">
<title>craft&#45;&gt;make</title>
<path fill="none" stroke="black" d="M736.64,-385C751.49,-385 768.67,-385 784.62,-385"/>
<polygon fill="black" stroke="black" points="784.88,-388.5 794.88,-385 784.88,-381.5 784.88,-388.5"/>
<text text-anchor="middle" x="766.5" y="-388" font-family="Arial" font-size="10.00">calls</text>
</g>
<!-- marks_craft -->
<g id="node18" class="node">
<title>marks_craft</title>
<text text-anchor="middle" x="696.5" y="-319.8" font-family="Arial" font-size="9.00">Marks used:</text>
<text text-anchor="middle" x="696.5" y="-309.8" font-family="Arial" font-size="9.00">no&#45;require&#45;*</text>
<text text-anchor="middle" x="696.5" y="-299.8" font-family="Arial" font-size="9.00">no&#45;dynamic&#45;link</text>
<text text-anchor="middle" x="696.5" y="-289.8" font-family="Arial" font-size="9.00">no&#45;static&#45;link</text>
<text text-anchor="middle" x="696.5" y="-279.8" font-family="Arial" font-size="9.00">only&#45;standalone</text>
<text text-anchor="middle" x="696.5" y="-269.8" font-family="Arial" font-size="9.00">no&#45;inplace</text>
<text text-anchor="middle" x="696.5" y="-259.8" font-family="Arial" font-size="9.00">no&#45;rootheader</text>
<text text-anchor="middle" x="696.5" y="-249.8" font-family="Arial" font-size="9.00">only&#45;liftheaders</text>
<text text-anchor="middle" x="696.5" y="-239.8" font-family="Arial" font-size="9.00">no&#45;singlephase</text>
<text text-anchor="middle" x="696.5" y="-229.8" font-family="Arial" font-size="9.00">no&#45;memo</text>
</g>
<!-- craft&#45;&gt;marks_craft -->
<!-- dispense -->
<g id="node8" class="node">
<title>dispense</title>
<polygon fill="#ffe0b2" stroke="black" points="1064,-403 956,-403 956,-399 952,-399 952,-395 956,-395 956,-375 952,-375 952,-371 956,-371 956,-367 1064,-367 1064,-403"/>
<polyline fill="none" stroke="black" points="956,-399 960,-399 960,-395 956,-395 "/>
<polyline fill="none" stroke="black" points="956,-375 960,-375 960,-371 956,-371 "/>
<text text-anchor="middle" x="1010" y="-381.3" font-family="Arial" font-size="14.00">mulle&#45;dispense</text>
</g>
<!-- make&#45;&gt;dispense -->
<g id="edge11" class="edge">
<title>make&#45;&gt;dispense</title>
<path fill="none" stroke="black" d="M883.08,-385C902.08,-385 924.78,-385 945.64,-385"/>
<polygon fill="black" stroke="black" points="945.71,-388.5 955.71,-385 945.71,-381.5 945.71,-388.5"/>
<text text-anchor="middle" x="919.5" y="-399" font-family="Arial" font-size="10.00">install to</text>
<text text-anchor="middle" x="919.5" y="-388" font-family="Arial" font-size="10.00">tmp dir</text>
</g>
<!-- built_deps -->
<g id="node13" class="node">
<title>built_deps</title>
<polygon fill="#c8e6c9" stroke="black" points="1204,-411.5 1201,-415.5 1180,-415.5 1177,-411.5 1101,-411.5 1101,-358.5 1204,-358.5 1204,-411.5"/>
<text text-anchor="middle" x="1152.5" y="-396.3" font-family="Arial" font-size="14.00">Built</text>
<text text-anchor="middle" x="1152.5" y="-381.3" font-family="Arial" font-size="14.00">Dependencies</text>
<text text-anchor="middle" x="1152.5" y="-366.3" font-family="Arial" font-size="14.00">(dependency/)</text>
</g>
<!-- dispense&#45;&gt;built_deps -->
<g id="edge12" class="edge">
<title>dispense&#45;&gt;built_deps</title>
<path fill="none" stroke="black" d="M1064.12,-385C1072.72,-385 1081.68,-385 1090.46,-385"/>
<polygon fill="black" stroke="black" points="1090.63,-388.5 1100.63,-385 1090.63,-381.5 1090.63,-388.5"/>
</g>
<!-- headers&#45;&gt;craft -->
<g id="edge13" class="edge">
<title>headers&#45;&gt;craft</title>
<path fill="none" stroke="#666666" stroke-dasharray="5,2" d="M516,-563.2C556.07,-523.42 630.77,-449.26 669.98,-410.34"/>
<polygon fill="#666666" stroke="#666666" points="672.69,-412.57 677.32,-403.04 667.76,-407.6 672.69,-412.57"/>
<text text-anchor="middle" x="610.5" y="-507" font-family="Arial" font-size="10.00">consumed</text>
<text text-anchor="middle" x="610.5" y="-496" font-family="Arial" font-size="10.00">during build</text>
</g>
<!-- cmake_deps&#45;&gt;craft -->
<g id="edge14" class="edge">
<title>cmake_deps&#45;&gt;craft</title>
<path fill="none" stroke="#666666" stroke-dasharray="5,2" d="M566.19,-423.2C593.17,-415.23 622.7,-406.51 646.71,-399.41"/>
<polygon fill="#666666" stroke="#666666" points="647.71,-402.77 656.3,-396.58 645.72,-396.05 647.71,-402.77"/>
<text text-anchor="middle" x="610.5" y="-431" font-family="Arial" font-size="10.00">consumed</text>
<text text-anchor="middle" x="610.5" y="-420" font-family="Arial" font-size="10.00">during build</text>
</g>
<!-- craft_list&#45;&gt;craft -->
<g id="edge9" class="edge">
<title>craft_list&#45;&gt;craft</title>
<path fill="none" stroke="black" d="M531.04,-337.21C564.42,-346.91 611.16,-360.49 646.28,-370.7"/>
<polygon fill="black" stroke="black" points="645.74,-374.19 656.32,-373.62 647.69,-367.46 645.74,-374.19"/>
<text text-anchor="middle" x="610.5" y="-381" font-family="Arial" font-size="10.00">for each</text>
<text text-anchor="middle" x="610.5" y="-370" font-family="Arial" font-size="10.00">dependency</text>
</g>
<!-- link_list&#45;&gt;craft -->
<g id="edge15" class="edge">
<title>link_list&#45;&gt;craft</title>
<path fill="none" stroke="#666666" stroke-dasharray="5,2" d="M527.78,-260.05C558.67,-276.02 602.32,-300.43 637,-327 649.52,-336.59 662.1,-348.67 672.37,-359.33"/>
<polygon fill="#666666" stroke="#666666" points="670,-361.91 679.41,-366.78 675.09,-357.11 670,-361.91"/>
<text text-anchor="middle" x="610.5" y="-341" font-family="Arial" font-size="10.00">link</text>
<text text-anchor="middle" x="610.5" y="-330" font-family="Arial" font-size="10.00">information</text>
</g>
<!-- leg_source -->
<g id="node19" class="node">
<title>leg_source</title>
<polygon fill="#e1f5ff" stroke="black" points="95,-766 92,-770 71,-770 68,-766 36,-766 36,-728 95,-728 95,-766"/>
<text text-anchor="middle" x="65.5" y="-750.8" font-family="Arial" font-size="14.00">Source</text>
<text text-anchor="middle" x="65.5" y="-735.8" font-family="Arial" font-size="14.00">Data</text>
</g>
<!-- leg_tool -->
<g id="node20" class="node">
<title>leg_tool</title>
<polygon fill="#64b5f6" stroke="black" points="327,-766 240,-766 240,-762 236,-762 236,-758 240,-758 240,-736 236,-736 236,-732 240,-732 240,-728 327,-728 327,-766"/>
<polyline fill="none" stroke="black" points="240,-762 244,-762 244,-758 240,-758 "/>
<polyline fill="none" stroke="black" points="240,-736 244,-736 244,-732 240,-732 "/>
<text text-anchor="middle" x="283.5" y="-750.8" font-family="Arial" font-size="14.00">Tool/</text>
<text text-anchor="middle" x="283.5" y="-735.8" font-family="Arial" font-size="14.00">Component</text>
</g>
<!-- leg_source&#45;&gt;leg_tool -->
<!-- leg_output -->
<g id="node21" class="node">
<title>leg_output</title>
<polygon fill="#c8e6c9" stroke="black" points="522.5,-766 447.5,-766 447.5,-728 528.5,-728 528.5,-760 522.5,-766"/>
<polyline fill="none" stroke="black" points="522.5,-766 522.5,-760 "/>
<polyline fill="none" stroke="black" points="528.5,-760 522.5,-760 "/>
<text text-anchor="middle" x="488" y="-750.8" font-family="Arial" font-size="14.00">Generated</text>
<text text-anchor="middle" x="488" y="-735.8" font-family="Arial" font-size="14.00">Artifact</text>
</g>
<!-- leg_tool&#45;&gt;leg_output -->
<!-- leg_solid -->
<g id="node22" class="node">
<title>leg_solid</title>
<path fill="none" stroke="black" d="M92,-709C92,-709 39,-709 39,-709 33,-709 27,-703 27,-697 27,-697 27,-685 27,-685 27,-679 33,-673 39,-673 39,-673 92,-673 92,-673 98,-673 104,-679 104,-685 104,-685 104,-697 104,-697 104,-703 98,-709 92,-709"/>
<text text-anchor="middle" x="65.5" y="-687.3" font-family="Arial" font-size="14.00">Data Flow</text>
</g>
<!-- leg_dashed -->
<g id="node23" class="node">
<title>leg_dashed</title>
<polygon fill="none" stroke="#666666" stroke-dasharray="5,2" points="328.5,-710 238.5,-710 238.5,-672 328.5,-672 328.5,-710"/>
<text text-anchor="middle" x="283.5" y="-694.8" font-family="Arial" font-size="14.00">Referenced</text>
<text text-anchor="middle" x="283.5" y="-679.8" font-family="Arial" font-size="14.00">During Build</text>
</g>
<!-- leg_solid&#45;&gt;leg_dashed -->
</g>
</svg>
