<?xml version="1.0" encoding="UTF-8"?><svg xmlns="http://www.w3.org/2000/svg" xmlns:xlink="http://www.w3.org/1999/xlink" fill-opacity="1" color-rendering="auto" color-interpolation="auto" text-rendering="auto" stroke="black" stroke-linecap="square" width="1066" stroke-miterlimit="10" shape-rendering="auto" stroke-opacity="1" fill="black" stroke-dasharray="none" font-weight="normal" stroke-width="1" height="620" font-family="'Dialog'" font-style="normal" stroke-linejoin="miter" font-size="12px" stroke-dashoffset="0" image-rendering="auto">
  <!--Generated by ySVG 2.5-->
  <defs id="genericDefs"/>
  <g>
    <defs id="defs1">
      <clipPath clipPathUnits="userSpaceOnUse" id="clipPath1">
        <path d="M0 0 L1066 0 L1066 620 L0 620 L0 0 Z"/>
      </clipPath>
      <clipPath clipPathUnits="userSpaceOnUse" id="clipPath2">
        <path d="M170 236 L1236 236 L1236 856 L170 856 L170 236 Z"/>
      </clipPath>
    </defs>
    <g fill="white" text-rendering="geometricPrecision" shape-rendering="geometricPrecision" transform="translate(-170,-236)" stroke="white">
      <rect x="170" width="1066" height="620" y="236" clip-path="url(#clipPath2)" stroke="none"/>
    </g>
    <g fill="rgb(255,204,0)" text-rendering="geometricPrecision" shape-rendering="geometricPrecision" transform="matrix(1,0,0,1,-170,-236)" stroke="rgb(255,204,0)">
      <rect x="471" width="166" height="30" y="251" clip-path="url(#clipPath2)" stroke="none"/>
    </g>
    <g text-rendering="geometricPrecision" stroke-miterlimit="1.45" shape-rendering="geometricPrecision" transform="matrix(1,0,0,1,-170,-236)" stroke-linecap="butt">
      <rect fill="none" x="471" width="166" height="30" y="251" clip-path="url(#clipPath2)"/>
      <text x="524.2109" xml:space="preserve" y="270.5352" clip-path="url(#clipPath2)" font-family="sans-serif" stroke="none">next entry</text>
    </g>
    <g fill="rgb(204,255,204)" text-rendering="geometricPrecision" shape-rendering="geometricPrecision" transform="matrix(1,0,0,1,-170,-236)" stroke="rgb(204,255,204)">
      <path d="M471 326 L554 311 L637 326 L554 341 Z" fill-rule="evenodd" clip-path="url(#clipPath2)" stroke="none"/>
    </g>
    <g text-rendering="geometricPrecision" stroke-miterlimit="1.45" shape-rendering="geometricPrecision" transform="matrix(1,0,0,1,-170,-236)" stroke-linecap="butt">
      <path fill="none" d="M471 326 L554 311 L637 326 L554 341 Z" fill-rule="evenodd" clip-path="url(#clipPath2)"/>
      <text x="548.7354" xml:space="preserve" y="330.5352" clip-path="url(#clipPath2)" font-family="sans-serif" stroke="none">fs</text>
    </g>
    <g fill="rgb(204,255,204)" text-rendering="geometricPrecision" shape-rendering="geometricPrecision" transform="matrix(1,0,0,1,-170,-236)" stroke="rgb(204,255,204)">
      <path d="M471 561 L554 546 L637 561 L554 576 Z" fill-rule="evenodd" clip-path="url(#clipPath2)" stroke="none"/>
    </g>
    <g text-rendering="geometricPrecision" stroke-miterlimit="1.45" shape-rendering="geometricPrecision" transform="matrix(1,0,0,1,-170,-236)" stroke-linecap="butt">
      <path fill="none" d="M471 561 L554 546 L637 561 L554 576 Z" fill-rule="evenodd" clip-path="url(#clipPath2)"/>
      <text x="536.2168" xml:space="preserve" y="565.5352" clip-path="url(#clipPath2)" font-family="sans-serif" stroke="none">delete</text>
    </g>
    <g fill="rgb(204,255,204)" text-rendering="geometricPrecision" shape-rendering="geometricPrecision" transform="matrix(1,0,0,1,-170,-236)" stroke="rgb(204,255,204)">
      <path d="M471 386 L554 371 L637 386 L554 401 Z" fill-rule="evenodd" clip-path="url(#clipPath2)" stroke="none"/>
    </g>
    <g text-rendering="geometricPrecision" stroke-miterlimit="1.45" shape-rendering="geometricPrecision" transform="matrix(1,0,0,1,-170,-236)" stroke-linecap="butt">
      <path fill="none" d="M471 386 L554 371 L637 386 L554 401 Z" fill-rule="evenodd" clip-path="url(#clipPath2)"/>
      <text x="533.8232" xml:space="preserve" y="390.5352" clip-path="url(#clipPath2)" font-family="sans-serif" stroke="none">update</text>
    </g>
    <g fill="rgb(238,238,238)" text-rendering="geometricPrecision" shape-rendering="geometricPrecision" transform="matrix(1,0,0,1,-170,-236)" stroke="rgb(238,238,238)">
      <path d="M471 506 L554 491 L637 506 L554 521 Z" fill-rule="evenodd" clip-path="url(#clipPath2)" stroke="none"/>
    </g>
    <g text-rendering="geometricPrecision" stroke-miterlimit="1.45" shape-rendering="geometricPrecision" transform="matrix(1,0,0,1,-170,-236)" stroke-linecap="butt">
      <path fill="none" d="M471 506 L554 491 L637 506 L554 521 Z" fill-rule="evenodd" clip-path="url(#clipPath2)"/>
      <text x="532.0566" xml:space="preserve" y="510.5352" clip-path="url(#clipPath2)" font-family="sans-serif" stroke="none">present</text>
    </g>
    <g fill="rgb(238,238,238)" text-rendering="geometricPrecision" shape-rendering="geometricPrecision" transform="matrix(1,0,0,1,-170,-236)" stroke="rgb(238,238,238)">
      <path d="M761 506 L844 491 L927 506 L844 521 Z" fill-rule="evenodd" clip-path="url(#clipPath2)" stroke="none"/>
    </g>
    <g text-rendering="geometricPrecision" stroke-miterlimit="1.45" shape-rendering="geometricPrecision" transform="matrix(1,0,0,1,-170,-236)" stroke-linecap="butt">
      <path fill="none" d="M761 506 L844 491 L927 506 L844 521 Z" fill-rule="evenodd" clip-path="url(#clipPath2)"/>
      <text x="785.2129" xml:space="preserve" y="510.5352" clip-path="url(#clipPath2)" font-family="sans-serif" stroke="none">present at last place</text>
    </g>
    <g fill="rgb(255,170,0)" text-rendering="geometricPrecision" shape-rendering="geometricPrecision" transform="matrix(1,0,0,1,-170,-236)" stroke="rgb(255,170,0)">
      <rect x="761" width="166" height="30" y="606" clip-path="url(#clipPath2)" stroke="none"/>
    </g>
    <g text-rendering="geometricPrecision" stroke-miterlimit="1.45" shape-rendering="geometricPrecision" transform="matrix(1,0,0,1,-170,-236)" stroke-linecap="butt">
      <rect fill="none" x="761" width="166" height="30" y="606" clip-path="url(#clipPath2)"/>
      <text x="828.2646" xml:space="preserve" y="625.5352" clip-path="url(#clipPath2)" font-family="sans-serif" stroke="none">move</text>
    </g>
    <g fill="rgb(238,238,238)" text-rendering="geometricPrecision" shape-rendering="geometricPrecision" transform="matrix(1,0,0,1,-170,-236)" stroke="rgb(238,238,238)">
      <path d="M222 446 L305 431 L388 446 L305 461 Z" fill-rule="evenodd" clip-path="url(#clipPath2)" stroke="none"/>
    </g>
    <g text-rendering="geometricPrecision" stroke-miterlimit="1.45" shape-rendering="geometricPrecision" transform="matrix(1,0,0,1,-170,-236)" stroke-linecap="butt">
      <path fill="none" d="M222 446 L305 431 L388 446 L305 461 Z" fill-rule="evenodd" clip-path="url(#clipPath2)"/>
      <text x="283.0566" xml:space="preserve" y="450.5352" clip-path="url(#clipPath2)" font-family="sans-serif" stroke="none">present</text>
    </g>
    <g fill="rgb(255,136,0)" text-rendering="geometricPrecision" shape-rendering="geometricPrecision" transform="matrix(1,0,0,1,-170,-236)" stroke="rgb(255,136,0)">
      <path d="M305 581 L324.0576 574.3149 L363.6898 576.6066 L351.0092 569.4442 L388 566 L351.0092 562.5558 L363.6898 555.3934 L324.0576 557.6851 L305 551 L285.9424 557.6851 L246.3102 555.3934 L258.9908 562.5558 L222 566 L258.9908 569.4442 L246.3102 576.6066 L285.9424 574.3149 Z" fill-rule="evenodd" clip-path="url(#clipPath2)" stroke="none"/>
    </g>
    <g text-rendering="geometricPrecision" stroke-miterlimit="1.45" shape-rendering="geometricPrecision" transform="matrix(1,0,0,1,-170,-236)" stroke-linecap="butt">
      <path fill="none" d="M305 581 L324.0576 574.3149 L363.6898 576.6066 L351.0092 569.4442 L388 566 L351.0092 562.5558 L363.6898 555.3934 L324.0576 557.6851 L305 551 L285.9424 557.6851 L246.3102 555.3934 L258.9908 562.5558 L222 566 L258.9908 569.4442 L246.3102 576.6066 L285.9424 574.3149 Z" fill-rule="evenodd" clip-path="url(#clipPath2)"/>
      <text x="292.7158" xml:space="preserve" y="570.5352" clip-path="url(#clipPath2)" font-family="sans-serif" stroke="none">FAIL</text>
    </g>
    <g fill="rgb(204,255,204)" text-rendering="geometricPrecision" shape-rendering="geometricPrecision" transform="matrix(1,0,0,1,-170,-236)" stroke="rgb(204,255,204)">
      <path d="M222 506 L305 491 L388 506 L305 521 Z" fill-rule="evenodd" clip-path="url(#clipPath2)" stroke="none"/>
    </g>
    <g text-rendering="geometricPrecision" stroke-miterlimit="1.45" shape-rendering="geometricPrecision" transform="matrix(1,0,0,1,-170,-236)" stroke-linecap="butt">
      <path fill="none" d="M222 506 L305 491 L388 506 L305 521 Z" fill-rule="evenodd" clip-path="url(#clipPath2)"/>
      <text x="284.1699" xml:space="preserve" y="510.5352" clip-path="url(#clipPath2)" font-family="sans-serif" stroke="none">require</text>
    </g>
    <g fill="rgb(204,255,204)" text-rendering="geometricPrecision" shape-rendering="geometricPrecision" transform="matrix(1,0,0,1,-170,-236)" stroke="rgb(204,255,204)">
      <path d="M761 561 L844 546 L927 561 L844 576 Z" fill-rule="evenodd" clip-path="url(#clipPath2)" stroke="none"/>
    </g>
    <g text-rendering="geometricPrecision" stroke-miterlimit="1.45" shape-rendering="geometricPrecision" transform="matrix(1,0,0,1,-170,-236)" stroke-linecap="butt">
      <path fill="none" d="M761 561 L844 546 L927 561 L844 576 Z" fill-rule="evenodd" clip-path="url(#clipPath2)"/>
      <text x="826.2168" xml:space="preserve" y="565.5352" clip-path="url(#clipPath2)" font-family="sans-serif" stroke="none">delete</text>
    </g>
    <g fill="rgb(238,238,238)" text-rendering="geometricPrecision" shape-rendering="geometricPrecision" transform="matrix(1,0,0,1,-170,-236)" stroke="rgb(238,238,238)">
      <path d="M471 446 L554 431 L637 446 L554 461 Z" fill-rule="evenodd" clip-path="url(#clipPath2)" stroke="none"/>
    </g>
    <g text-rendering="geometricPrecision" stroke-miterlimit="1.45" shape-rendering="geometricPrecision" transform="matrix(1,0,0,1,-170,-236)" stroke-linecap="butt">
      <path fill="none" d="M471 446 L554 431 L637 446 L554 461 Z" fill-rule="evenodd" clip-path="url(#clipPath2)"/>
      <text x="519.6523" xml:space="preserve" y="450.5352" clip-path="url(#clipPath2)" font-family="sans-serif" stroke="none">still present</text>
    </g>
    <g fill="rgb(255,170,0)" text-rendering="geometricPrecision" shape-rendering="geometricPrecision" transform="matrix(1,0,0,1,-170,-236)" stroke="rgb(255,170,0)">
      <rect x="471" width="166" height="30" y="601" clip-path="url(#clipPath2)" stroke="none"/>
    </g>
    <g text-rendering="geometricPrecision" stroke-miterlimit="1.45" shape-rendering="geometricPrecision" transform="matrix(1,0,0,1,-170,-236)" stroke-linecap="butt">
      <rect fill="none" x="471" width="166" height="30" y="601" clip-path="url(#clipPath2)"/>
      <text x="532.4668" xml:space="preserve" y="620.5352" clip-path="url(#clipPath2)" font-family="sans-serif" stroke="none">remove</text>
    </g>
    <g fill="rgb(255,170,0)" text-rendering="geometricPrecision" shape-rendering="geometricPrecision" transform="matrix(1,0,0,1,-170,-236)" stroke="rgb(255,170,0)">
      <rect x="471" width="166" height="30" y="671" clip-path="url(#clipPath2)" stroke="none"/>
    </g>
    <g text-rendering="geometricPrecision" stroke-miterlimit="1.45" shape-rendering="geometricPrecision" transform="matrix(1,0,0,1,-170,-236)" stroke-linecap="butt">
      <rect fill="none" x="471" width="166" height="30" y="671" clip-path="url(#clipPath2)"/>
      <text x="539.4102" xml:space="preserve" y="690.5352" clip-path="url(#clipPath2)" font-family="sans-serif" stroke="none">fetch</text>
    </g>
    <g fill="rgb(204,255,204)" text-rendering="geometricPrecision" shape-rendering="geometricPrecision" transform="matrix(1,0,0,1,-170,-236)" stroke="rgb(204,255,204)">
      <path d="M471 756 L554 741 L637 756 L554 771 Z" fill-rule="evenodd" clip-path="url(#clipPath2)" stroke="none"/>
    </g>
    <g text-rendering="geometricPrecision" stroke-miterlimit="1.45" shape-rendering="geometricPrecision" transform="matrix(1,0,0,1,-170,-236)" stroke-linecap="butt">
      <path fill="none" d="M471 756 L554 741 L637 756 L554 771 Z" fill-rule="evenodd" clip-path="url(#clipPath2)"/>
      <text x="526.7129" xml:space="preserve" y="760.5352" clip-path="url(#clipPath2)" font-family="sans-serif" stroke="none">readwrite</text>
    </g>
    <g fill="rgb(255,170,0)" text-rendering="geometricPrecision" shape-rendering="geometricPrecision" transform="matrix(1,0,0,1,-170,-236)" stroke="rgb(255,170,0)">
      <rect x="471" width="166" height="30" y="811" clip-path="url(#clipPath2)" stroke="none"/>
    </g>
    <g text-rendering="geometricPrecision" stroke-miterlimit="1.45" shape-rendering="geometricPrecision" transform="matrix(1,0,0,1,-170,-236)" stroke-linecap="butt">
      <rect fill="none" x="471" width="166" height="30" y="811" clip-path="url(#clipPath2)"/>
      <text x="533.1787" xml:space="preserve" y="830.5352" clip-path="url(#clipPath2)" font-family="sans-serif" stroke="none">protect</text>
    </g>
    <g fill="rgb(238,238,238)" text-rendering="geometricPrecision" shape-rendering="geometricPrecision" transform="matrix(1,0,0,1,-170,-236)" stroke="rgb(238,238,238)">
      <path d="M761 446 L844 431 L927 446 L844 461 Z" fill-rule="evenodd" clip-path="url(#clipPath2)" stroke="none"/>
    </g>
    <g text-rendering="geometricPrecision" stroke-miterlimit="1.45" shape-rendering="geometricPrecision" transform="matrix(1,0,0,1,-170,-236)" stroke-linecap="butt">
      <path fill="none" d="M761 446 L844 431 L927 446 L844 461 Z" fill-rule="evenodd" clip-path="url(#clipPath2)"/>
      <text x="815.7285" xml:space="preserve" y="450.5352" clip-path="url(#clipPath2)" font-family="sans-serif" stroke="none">is zombie</text>
    </g>
    <g fill="rgb(204,255,204)" text-rendering="geometricPrecision" shape-rendering="geometricPrecision" transform="matrix(1,0,0,1,-170,-236)" stroke="rgb(204,255,204)">
      <path d="M1009 561 L1092 546 L1175 561 L1092 576 Z" fill-rule="evenodd" clip-path="url(#clipPath2)" stroke="none"/>
    </g>
    <g text-rendering="geometricPrecision" stroke-miterlimit="1.45" shape-rendering="geometricPrecision" transform="matrix(1,0,0,1,-170,-236)" stroke-linecap="butt">
      <path fill="none" d="M1009 561 L1092 546 L1175 561 L1092 576 Z" fill-rule="evenodd" clip-path="url(#clipPath2)"/>
      <text x="1074.2168" xml:space="preserve" y="565.5352" clip-path="url(#clipPath2)" font-family="sans-serif" stroke="none">delete</text>
    </g>
    <g fill="rgb(255,170,0)" text-rendering="geometricPrecision" shape-rendering="geometricPrecision" transform="matrix(1,0,0,1,-170,-236)" stroke="rgb(255,170,0)">
      <rect x="1009" width="166" height="30" y="606" clip-path="url(#clipPath2)" stroke="none"/>
    </g>
    <g text-rendering="geometricPrecision" stroke-miterlimit="1.45" shape-rendering="geometricPrecision" transform="matrix(1,0,0,1,-170,-236)" stroke-linecap="butt">
      <rect fill="none" x="1009" width="166" height="30" y="606" clip-path="url(#clipPath2)"/>
      <text x="1070.4668" xml:space="preserve" y="625.5352" clip-path="url(#clipPath2)" font-family="sans-serif" stroke="none">remove</text>
      <path fill="none" d="M554 281 L554 303.0146" clip-path="url(#clipPath2)"/>
      <path d="M554 311.0146 L559 299.0146 L554 302.0146 L549 299.0146 Z" clip-path="url(#clipPath2)" stroke="none"/>
      <path fill="none" d="M636.9836 326 L697 326" clip-path="url(#clipPath2)"/>
      <path d="M705 326 L693 321 L696 326 L693 331 Z" clip-path="url(#clipPath2)" stroke="none"/>
      <text x="656" xml:space="preserve" y="341.6016" clip-path="url(#clipPath2)" font-family="sans-serif" stroke="none">NO</text>
      <path fill="none" d="M554 340.9707 L554 363.0049" clip-path="url(#clipPath2)"/>
      <path d="M554 371.0049 L559 359.0049 L554 362.0049 L549 359.0049 Z" clip-path="url(#clipPath2)" stroke="none"/>
      <text x="557" xml:space="preserve" y="359.6016" clip-path="url(#clipPath2)" font-family="sans-serif" stroke="none">YES</text>
      <path fill="none" d="M554 521.0122 L554 537.9655" clip-path="url(#clipPath2)"/>
      <path d="M554 545.9655 L559 533.9655 L554 536.9655 L549 533.9655 Z" clip-path="url(#clipPath2)" stroke="none"/>
      <text x="553" xml:space="preserve" y="538.0352" clip-path="url(#clipPath2)" font-family="sans-serif" stroke="none">YES</text>
      <path fill="none" d="M637.0035 505.9746 L668.6133 485.4465 L677.4033 481.3616 L687 480 L710 480 L719.6118 481.338 L728.4472 485.3521 L754.2378 501.6929" clip-path="url(#clipPath2)"/>
      <path d="M760.9955 505.9746 L753.535 495.3285 L753.3931 501.1577 L748.1829 503.7757 Z" clip-path="url(#clipPath2)" stroke="none"/>
      <text x="625.9053" xml:space="preserve" y="499.7211" clip-path="url(#clipPath2)" font-family="sans-serif" stroke="none">NO</text>
      <path fill="none" d="M637.0137 561 L698 561" clip-path="url(#clipPath2)"/>
      <path d="M706 561 L694 556 L697 561 L694 566 Z" clip-path="url(#clipPath2)" stroke="none"/>
      <text x="655" xml:space="preserve" y="574.6016" clip-path="url(#clipPath2)" font-family="sans-serif" stroke="none">NO</text>
      <path fill="none" d="M761 621 L706 621 L706 322 L706 275" clip-path="url(#clipPath2)"/>
      <path d="M706 267 L701 279 L706 276 L711 279 Z" clip-path="url(#clipPath2)" stroke="none"/>
      <path fill="none" d="M470.9899 386 L305 386 L305 423.0293" clip-path="url(#clipPath2)"/>
      <path d="M305 431.0293 L310 419.0293 L305 422.0293 L300 419.0293 Z" clip-path="url(#clipPath2)" stroke="none"/>
      <text x="428.7195" xml:space="preserve" y="401.6016" clip-path="url(#clipPath2)" font-family="sans-serif" stroke="none">NO</text>
      <path fill="none" d="M305 460.9707 L305 483.0049" clip-path="url(#clipPath2)"/>
      <path d="M305 491.0049 L310 479.0049 L305 482.0049 L300 479.0049 Z" clip-path="url(#clipPath2)" stroke="none"/>
      <text x="306" xml:space="preserve" y="481.4688" clip-path="url(#clipPath2)" font-family="sans-serif" stroke="none">NO</text>
      <path fill="none" d="M305 520.9707 L305 543.0049" clip-path="url(#clipPath2)"/>
      <path d="M305 551.0049 L310 539.0049 L305 542.0049 L300 539.0049 Z" clip-path="url(#clipPath2)" stroke="none"/>
      <text x="309" xml:space="preserve" y="541.4688" clip-path="url(#clipPath2)" font-family="sans-serif" stroke="none">YES</text>
      <path fill="none" d="M222.002 506 L185 506 L185 266 L463 266" clip-path="url(#clipPath2)"/>
      <path d="M471 266 L459 261 L462 266 L459 271 Z" clip-path="url(#clipPath2)" stroke="none"/>
      <text x="191.4184" xml:space="preserve" y="521.6016" clip-path="url(#clipPath2)" font-family="sans-serif" stroke="none">NO</text>
      <path fill="none" d="M844 521.0122 L844 537.9655" clip-path="url(#clipPath2)"/>
      <path d="M844 545.9655 L849 533.9655 L844 536.9655 L839 533.9655 Z" clip-path="url(#clipPath2)" stroke="none"/>
      <text x="848" xml:space="preserve" y="538.0352" clip-path="url(#clipPath2)" font-family="sans-serif" stroke="none">YES</text>
      <path fill="none" d="M844 575.9707 L844 598" clip-path="url(#clipPath2)"/>
      <path d="M844 606 L849 594 L844 597 L839 594 Z" clip-path="url(#clipPath2)" stroke="none"/>
      <text x="849" xml:space="preserve" y="594.6016" clip-path="url(#clipPath2)" font-family="sans-serif" stroke="none">YES</text>
      <path fill="none" d="M926.9795 561 L960 561" clip-path="url(#clipPath2)"/>
      <path d="M968 561 L956 556 L959 561 L956 566 Z" clip-path="url(#clipPath2)" stroke="none"/>
      <text x="934" xml:space="preserve" y="573.6016" clip-path="url(#clipPath2)" font-family="sans-serif" stroke="none">NO</text>
      <path fill="none" d="M554 400.9707 L554 423.0049" clip-path="url(#clipPath2)"/>
      <path d="M554 431.0049 L559 419.0049 L554 422.0049 L549 419.0049 Z" clip-path="url(#clipPath2)" stroke="none"/>
      <text x="555" xml:space="preserve" y="419.6016" clip-path="url(#clipPath2)" font-family="sans-serif" stroke="none">YES</text>
      <path fill="none" d="M554 460.9707 L554 483.0049" clip-path="url(#clipPath2)"/>
      <path d="M554 491.0049 L559 479.0049 L554 482.0049 L549 479.0049 Z" clip-path="url(#clipPath2)" stroke="none"/>
      <text x="557" xml:space="preserve" y="479.6016" clip-path="url(#clipPath2)" font-family="sans-serif" stroke="none">NO</text>
      <path fill="none" d="M554 576.0122 L554 593" clip-path="url(#clipPath2)"/>
      <path d="M554 601 L559 589 L554 592 L549 589 Z" clip-path="url(#clipPath2)" stroke="none"/>
      <path fill="none" d="M927.0112 506 L966 506 L966 686 L645 686" clip-path="url(#clipPath2)"/>
      <path d="M637 686 L649 691 L646 686 L649 681 Z" clip-path="url(#clipPath2)" stroke="none"/>
      <text x="945" xml:space="preserve" y="522.6016" clip-path="url(#clipPath2)" font-family="sans-serif" stroke="none">NO</text>
      <path fill="none" d="M554 631 L554 663" clip-path="url(#clipPath2)"/>
      <path d="M554 671 L559 659 L554 662 L549 659 Z" clip-path="url(#clipPath2)" stroke="none"/>
      <path fill="none" d="M554 701 L554 732.9878" clip-path="url(#clipPath2)"/>
      <path d="M554 740.9878 L559 728.9878 L554 731.9878 L549 728.9878 Z" clip-path="url(#clipPath2)" stroke="none"/>
      <path fill="none" d="M482.0776 758 L429 758 L429 446 L395.9819 446" clip-path="url(#clipPath2)"/>
      <path d="M387.9819 446 L399.9819 451 L396.9819 446 L399.9819 441 Z" clip-path="url(#clipPath2)" stroke="none"/>
      <text x="451" xml:space="preserve" y="771.6016" clip-path="url(#clipPath2)" font-family="sans-serif" stroke="none">YES</text>
      <path fill="none" d="M554 771.0049 L554 803" clip-path="url(#clipPath2)"/>
      <path d="M554 811 L559 799 L554 802 L549 799 Z" clip-path="url(#clipPath2)" stroke="none"/>
      <text x="558" xml:space="preserve" y="800.6016" clip-path="url(#clipPath2)" font-family="sans-serif" stroke="none">NO</text>
      <path fill="none" d="M471 826 L431 826 L431 766" clip-path="url(#clipPath2)"/>
      <path d="M431 758 L426 770 L431 767 L436 770 Z" clip-path="url(#clipPath2)" stroke="none"/>
      <path fill="none" d="M637.008 445.9824 L672.3904 431.7352 L681.8477 428.9338 L691.6667 428 L712.6667 428 L722.43 429.0618 L731.72 432.2472 L753.7556 442.5847" clip-path="url(#clipPath2)"/>
      <path d="M760.9982 445.9824 L752.2578 436.3592 L752.8502 442.16 L748.0107 445.4124 Z" clip-path="url(#clipPath2)" stroke="none"/>
      <text x="644" xml:space="preserve" y="458.317" clip-path="url(#clipPath2)" font-family="sans-serif" stroke="none">YES</text>
      <path fill="none" d="M844 431.0105 L844 275" clip-path="url(#clipPath2)"/>
      <path d="M844 267 L839 279 L844 276 L849 279 Z" clip-path="url(#clipPath2)" stroke="none"/>
      <text x="848" xml:space="preserve" y="419.8587" clip-path="url(#clipPath2)" font-family="sans-serif" stroke="none">NO</text>
      <path fill="none" d="M926.9795 446 L1092 446 L1092 446 L1092 537.9792" clip-path="url(#clipPath2)"/>
      <path d="M1092 545.9792 L1097 533.9792 L1092 536.9792 L1087 533.9792 Z" clip-path="url(#clipPath2)" stroke="none"/>
      <text x="956.765" xml:space="preserve" y="457.6016" clip-path="url(#clipPath2)" font-family="sans-serif" stroke="none">YES</text>
      <path fill="none" d="M1175.0021 561 L1211.6666 561" clip-path="url(#clipPath2)"/>
      <path d="M1219.6666 561 L1207.6666 556 L1210.6666 561 L1207.6666 566 Z" clip-path="url(#clipPath2)" stroke="none"/>
      <text x="1183.0619" xml:space="preserve" y="572.6016" clip-path="url(#clipPath2)" font-family="sans-serif" stroke="none">NO</text>
      <path fill="none" d="M1092 575.9707 L1092 598" clip-path="url(#clipPath2)"/>
      <path d="M1092 606 L1097 594 L1092 597 L1087 594 Z" clip-path="url(#clipPath2)" stroke="none"/>
      <path fill="none" d="M1092 575.9707 L1092 598" clip-path="url(#clipPath2)"/>
      <path d="M1092 606 L1097 594 L1092 597 L1087 594 Z" clip-path="url(#clipPath2)" stroke="none"/>
      <path fill="none" d="M1092 575.9707 L1092 598" clip-path="url(#clipPath2)"/>
      <path d="M1092 606 L1097 594 L1092 597 L1087 594 Z" clip-path="url(#clipPath2)" stroke="none"/>
      <text x="1098" xml:space="preserve" y="594.6016" clip-path="url(#clipPath2)" font-family="sans-serif" stroke="none">YES</text>
      <path fill="none" d="M1175 621 L1219 621 L1219 266 L645 266" clip-path="url(#clipPath2)"/>
      <path d="M637 266 L649 271 L646 266 L649 261 Z" clip-path="url(#clipPath2)" stroke="none"/>
    </g>
  </g>
</svg>
